<svg width="54" height="54" viewBox="0 0 54 54" fill="none" xmlns="http://www.w3.org/2000/svg">
<rect width="53.9999" height="53.9999" rx="8" fill="white"/>
<path d="M11.3399 7.55994H44.2799V45.3599L31.2148 49.4999V53.9999H26.9999H22.8V51.9329L19.4399 51.2999L11.8799 48.5999L5.66992 30.7799L11.3399 7.55994Z" fill="#E25420"/>
<path d="M27 0.108032C12.15 0.108032 0 12.231 0 27.162C0 40.662 9.88198 51.867 22.788 53.892V34.992H15.93V27.162H22.788V21.195C22.788 14.418 26.811 10.692 32.994 10.692C35.937 10.692 39.0149 11.205 39.0149 11.205V17.874H35.613C32.265 17.874 31.212 19.953 31.212 22.086V27.162H38.7179L37.503 34.992H31.212V53.892C37.5744 52.8871 43.3679 49.6409 47.5467 44.7391C51.7256 39.8374 54.0144 33.6032 53.9999 27.162C53.9999 12.231 41.8499 0.108032 27 0.108032Z" fill="white"/>
</svg>
