<svg width="69" height="53" viewBox="0 0 69 53" fill="none" xmlns="http://www.w3.org/2000/svg">
<path d="M4.68479 52.9999H15.6066V25.7179L0 13.6656V48.1818C0 50.853 2.10225 52.9999 4.68479 52.9999Z" fill="#4285F4"/>
<path d="M53.0798 52.9999H64.0016C66.5841 52.9999 68.6864 50.8378 68.6864 48.1818V13.6656L53.0798 25.7027V52.9999Z" fill="#34A853"/>
<path d="M53.0798 4.83493V25.7025L68.6864 13.6654V7.2371C68.6864 1.28895 62.0791 -2.11631 57.4493 1.45866L53.0798 4.83493Z" fill="#FBBC04"/>
<path d="M15.6078 25.7172V4.83447L34.3457 19.2889L53.0835 4.83447V25.7172L34.3457 40.1564L15.6078 25.7172Z" fill="#EA4335"/>
<path d="M0 7.25077V13.6791L15.6066 25.7161V4.83481L11.2371 1.47233C6.60728 -2.10264 0 1.30262 0 7.25077Z" fill="#C5221F"/>
</svg>
