<svg width="54" height="54" viewBox="0 0 54 54" fill="none" xmlns="http://www.w3.org/2000/svg">
<rect width="54" height="54" rx="8" fill="white"/>
<rect x="7" y="7" width="40" height="40" rx="11.8519" fill="#E25420"/>
<path d="M26.9987 9.60864C31.7239 9.60864 32.3135 9.62603 34.1674 9.71299C36.0196 9.79995 37.2805 10.0904 38.39 10.5217C39.5378 10.9634 40.5048 11.5617 41.4718 12.5269C42.3561 13.3963 43.0404 14.4479 43.477 15.6086C43.9065 16.7165 44.1987 17.9791 44.2857 19.8312C44.3674 21.6852 44.39 22.2747 44.39 26.9999C44.39 31.7252 44.3726 32.3147 44.2857 34.1686C44.1987 36.0208 43.9065 37.2817 43.477 38.3912C43.0416 39.5526 42.3572 40.6045 41.4718 41.473C40.6021 42.357 39.5506 43.0413 38.39 43.4782C37.2822 43.9078 36.0196 44.1999 34.1674 44.2869C32.3135 44.3686 31.7239 44.3912 26.9987 44.3912C22.2735 44.3912 21.6839 44.3739 19.83 44.2869C17.9779 44.1999 16.717 43.9078 15.6074 43.4782C14.4462 43.0425 13.3944 42.3581 12.5257 41.473C11.6412 40.6037 10.9569 39.5521 10.5205 38.3912C10.0892 37.2834 9.79873 36.0208 9.71177 34.1686C9.63003 32.3147 9.60742 31.7252 9.60742 26.9999C9.60742 22.2747 9.62481 21.6852 9.71177 19.8312C9.79873 17.9773 10.0892 16.7182 10.5205 15.6086C10.9557 14.4472 11.6401 13.3953 12.5257 12.5269C13.3947 11.6421 14.4464 10.9577 15.6074 10.5217C16.717 10.0904 17.9761 9.79995 19.83 9.71299C21.6839 9.63125 22.2735 9.60864 26.9987 9.60864ZM26.9987 18.3043C24.6925 18.3043 22.4807 19.2204 20.85 20.8512C19.2192 22.4819 18.3031 24.6937 18.3031 26.9999C18.3031 29.3062 19.2192 31.5179 20.85 33.1487C22.4807 34.7794 24.6925 35.6956 26.9987 35.6956C29.305 35.6956 31.5167 34.7794 33.1475 33.1487C34.7782 31.5179 35.6944 29.3062 35.6944 26.9999C35.6944 24.6937 34.7782 22.4819 33.1475 20.8512C31.5167 19.2204 29.305 18.3043 26.9987 18.3043ZM38.3031 17.8695C38.3031 17.293 38.074 16.74 37.6663 16.3323C37.2587 15.9246 36.7057 15.6956 36.1292 15.6956C35.5526 15.6956 34.9997 15.9246 34.592 16.3323C34.1843 16.74 33.9552 17.293 33.9552 17.8695C33.9552 18.4461 34.1843 18.999 34.592 19.4067C34.9997 19.8144 35.5526 20.0434 36.1292 20.0434C36.7057 20.0434 37.2587 19.8144 37.6663 19.4067C38.074 18.999 38.3031 18.4461 38.3031 17.8695ZM26.9987 21.7826C28.3825 21.7826 29.7095 22.3322 30.688 23.3107C31.6664 24.2891 32.2161 25.6162 32.2161 26.9999C32.2161 28.3837 31.6664 29.7107 30.688 30.6892C29.7095 31.6676 28.3825 32.2173 26.9987 32.2173C25.615 32.2173 24.2879 31.6676 23.3095 30.6892C22.331 29.7107 21.7813 28.3837 21.7813 26.9999C21.7813 25.6162 22.331 24.2891 23.3095 23.3107C24.2879 22.3322 25.615 21.7826 26.9987 21.7826Z" fill="white"/>
</svg>
