<svg width="54" height="54" viewBox="0 0 54 54" fill="none" xmlns="http://www.w3.org/2000/svg">
<rect width="54" height="54" rx="8" fill="white"/>
<path d="M4 21.6042C4 11.3294 12.3294 3 22.6042 3V3C38.2868 3 51 15.7132 51 31.3958V33C51 42.3888 43.3888 50 34 50H20C11.1634 50 4 42.8366 4 34V21.6042Z" fill="#E25420"/>
<path d="M44.6 44.6075H37.195V33.0075C37.195 30.24 37.1375 26.68 33.335 26.68C29.475 26.68 28.885 29.69 28.885 32.8025V44.6075H21.4825V20.75H28.5925V24H28.69C29.6825 22.125 32.1 20.15 35.71 20.15C43.2125 20.15 44.6 25.085 44.6 31.5125V44.6075ZM13.1175 17.485C10.7325 17.485 8.8175 15.5575 8.8175 13.185C8.8175 10.8125 10.735 8.885 13.1175 8.885C14.2579 8.885 15.3517 9.33803 16.1581 10.1444C16.9645 10.9508 17.4175 12.0446 17.4175 13.185C17.4175 14.3254 16.9645 15.4192 16.1581 16.2256C15.3517 17.032 14.2579 17.485 13.1175 17.485ZM16.8275 44.61H9.4025V20.75H16.8275V44.6075V44.61ZM48.3025 2H5.69C3.65 2 2 3.6125 2 5.6V48.4C2 50.3875 3.65 52 5.69 52H48.295C50.3325 52 52 50.39 52 48.4V5.6C52 3.615 50.3325 2 48.295 2H48.3025Z" fill="white"/>
</svg>
