<svg width="54" height="54" viewBox="0 0 54 54" fill="none" xmlns="http://www.w3.org/2000/svg">
<rect width="54" height="54" rx="8" fill="white"/>
<path d="M8.8527 44.9355H15.5033V26.9521L6 19.0077V41.7595C6 43.5203 7.28012 44.9355 8.8527 44.9355Z" fill="#E25420"/>
<path d="M38.3242 44.9355H44.9748C46.5474 44.9355 47.8275 43.5103 47.8275 41.7595V19.0077L38.3242 26.9421V44.9355Z" fill="#E25420"/>
<path d="M38.3242 13.187V26.9422L47.8275 19.0078V14.7704C47.8275 10.8496 43.8041 8.605 40.9849 10.9615L38.3242 13.187Z" fill="#E25420"/>
<path d="M15.502 26.9526V13.1875L26.9119 22.7153L38.3219 13.1875V26.9526L26.9119 36.4705L15.502 26.9526Z" fill="#E25420"/>
<path d="M6 14.78V19.0173L15.5033 26.9517V13.1874L12.8426 10.971C10.0233 8.61453 6 10.8591 6 14.78Z" fill="#E25420"/>
</svg>
