<svg width="182" height="119" viewBox="0 0 182 119" fill="none" xmlns="http://www.w3.org/2000/svg">
<path d="M74.1748 56.4848V35.8926H106.454V56.4848M74.1748 56.4848H106.454M74.1748 56.4848H69.3672L74.1748 59.9168M106.454 56.4848H111.262L106.454 59.9168M74.1748 59.9168H106.454M74.1748 59.9168V75.361M106.454 59.9168V75.361M74.1748 75.361H54.2578L59.7522 80.509M74.1748 75.361H86.5371M59.7522 80.509H120.19M59.7522 80.509V99.9573V117.689H120.19V99.9573V80.509M120.19 80.509L126.371 75.361H106.454M106.454 75.361H94.7786M86.5371 75.361V65.0649M86.5371 75.361H94.7786M86.5371 65.0649H94.7786M86.5371 65.0649L84.4767 63.9209M94.7786 65.0649V75.361M94.7786 65.0649L96.8389 63.9209" stroke="white"/>
<path d="M74.8608 36.4638L68.6797 33.0318H72.1136M105.766 36.4638L111.948 33.0318H107.14M107.14 33.0318V29.0278L104.393 27.8837L96.1514 17.0156H83.7891L74.8608 27.8837L72.1136 29.0278V33.0318M107.14 33.0318H72.1136" stroke="white"/>
<path d="M83.7891 17.0162L86.5362 13.5841H87.223M96.1513 17.0162L93.4042 13.5841H92.7174M89.9702 13.5841V7.86407M89.9702 13.5841H87.223M89.9702 13.5841H92.7174M89.9702 1H90.657L92.0306 6.72006M89.9702 1V7.86407M89.9702 1H89.2834L87.9098 6.72006M92.0306 6.72006L89.9702 7.86407M92.0306 6.72006L92.7174 9.00809L94.7777 10.7241L92.7174 12.4401V13.5841M89.9702 7.86407L87.9098 6.72006M87.9098 6.72006L87.223 9.00809L85.1626 10.7241L87.223 12.4401V13.5841" stroke="white" stroke-width="0.5"/>
<path d="M75.5469 117.108V84.5137H105.079V117.69" stroke="white" stroke-width="0.5"/>
<path d="M97.0249 43.3294C97.0249 46.1307 94.2634 48.5495 90.657 48.5495C87.0506 48.5495 84.2891 46.1307 84.2891 43.3294C84.2891 40.5282 87.0506 38.1094 90.657 38.1094C94.2634 38.1094 97.0249 40.5282 97.0249 43.3294Z" stroke="white"/>
<ellipse cx="90.6573" cy="43.3285" rx="2.74717" ry="3.43204" fill="white"/>
<path d="M35.5 78.7928C35.5 81.0032 33.5279 82.8689 31 82.8689C28.4721 82.8689 26.5 81.0032 26.5 78.7928C26.5 76.5825 28.4721 74.7168 31 74.7168C33.5279 74.7168 35.5 76.5825 35.5 78.7928Z" stroke="white"/>
<ellipse cx="31" cy="78.7939" rx="2" ry="2.28802" fill="white"/>
<path d="M43.9296 70.3606V117.69H17.2867V70.3606M43.9296 70.3606L48.074 66.209H42.7454H19.655H13.7344L17.2867 70.3606M43.9296 70.3606H17.2867" stroke="white"/>
<path d="M26.5548 44.4727C26.0909 44.4727 20.9486 58.9635 17.8555 66.2089H43.9536L35.0253 44.4727H26.5548Z" stroke="white"/>
<path d="M26.0957 117.69V92.5215H35.7108V117.69" stroke="white"/>
<path d="M32.5 44.4725H29L29.816 42.3389C30.1437 41.4818 31.3563 41.4818 31.684 42.3389L32.5 44.4725Z" stroke="white"/>
<path d="M0 117.689H182" stroke="white" stroke-width="2"/>
<rect x="28.375" y="51.7109" width="4.25" height="10.6901" stroke="white" stroke-width="0.75"/>
<path d="M154.766 78.7928C154.766 81.0032 152.794 82.8689 150.266 82.8689C147.738 82.8689 145.766 81.0032 145.766 78.7928C145.766 76.5825 147.738 74.7168 150.266 74.7168C152.794 74.7168 154.766 76.5825 154.766 78.7928Z" stroke="white"/>
<ellipse cx="150.266" cy="78.7939" rx="2" ry="2.28802" fill="white"/>
<path d="M163.195 70.3606V117.69H136.552V70.3606M163.195 70.3606L167.34 66.209H162.011H138.921H133L136.552 70.3606M163.195 70.3606H136.552" stroke="white"/>
<path d="M145.82 44.4727C145.356 44.4727 140.214 58.9635 137.121 66.2089H163.219L154.291 44.4727H145.82Z" stroke="white"/>
<path d="M145.361 117.69V92.5215H154.976V117.69" stroke="white"/>
<path d="M151.766 44.4725H148.266L149.082 42.3389C149.409 41.4818 150.622 41.4818 150.95 42.3389L151.766 44.4725Z" stroke="white"/>
<rect x="147.641" y="51.7109" width="4.25" height="10.6901" stroke="white" stroke-width="0.75"/>
</svg>
