<svg width="182" height="119" viewBox="0 0 182 119" fill="none" xmlns="http://www.w3.org/2000/svg">
<path d="M74.1748 56.2446V35.6523H106.454V56.2446M74.1748 56.2446H106.454M74.1748 56.2446H69.3672L74.1748 59.6766M106.454 56.2446H111.262L106.454 59.6766M74.1748 59.6766H106.454M74.1748 59.6766V75.1208M106.454 59.6766V75.1208M74.1748 75.1208H54.2578L59.7522 80.2688M74.1748 75.1208H86.5371M59.7522 80.2688H120.19M59.7522 80.2688V99.717V117.449H120.19V99.717V80.2688M120.19 80.2688L126.371 75.1208H106.454M106.454 75.1208H94.7786M86.5371 75.1208V64.8247M86.5371 75.1208H94.7786M86.5371 64.8247H94.7786M86.5371 64.8247L84.4767 63.6806M94.7786 64.8247V75.1208M94.7786 64.8247L96.8389 63.6806" stroke="white"/>
<path d="M74.8608 36.2246L68.6797 32.7925H72.1136M105.766 36.2246L111.948 32.7925H107.14M107.14 32.7925V28.7885L104.393 27.6445L96.1514 16.7764H83.7891L74.8608 27.6445L72.1136 28.7885V32.7925M107.14 32.7925H72.1136" stroke="white"/>
<path d="M83.7891 16.7759L86.5362 13.3439H87.223M96.1513 16.7759L93.4042 13.3439H92.7174M89.9702 13.3439V7.62384M89.9702 13.3439H87.223M89.9702 13.3439H92.7174M89.9702 0.759766H90.657L92.0306 6.47983M89.9702 0.759766V7.62384M89.9702 0.759766H89.2834L87.9098 6.47983M92.0306 6.47983L89.9702 7.62384M92.0306 6.47983L92.7174 8.76785L94.7777 10.4839L92.7174 12.1999V13.3439M89.9702 7.62384L87.9098 6.47983M87.9098 6.47983L87.223 8.76785L85.1626 10.4839L87.223 12.1999V13.3439" stroke="white" stroke-width="0.5"/>
<path d="M75.5469 116.868V84.2734H105.079V117.45" stroke="white" stroke-width="0.5"/>
<path d="M97.0249 43.0882C97.0249 45.8895 94.2634 48.3083 90.657 48.3083C87.0506 48.3083 84.2891 45.8895 84.2891 43.0882C84.2891 40.287 87.0506 37.8682 90.657 37.8682C94.2634 37.8682 97.0249 40.287 97.0249 43.0882Z" stroke="white"/>
<ellipse cx="90.6573" cy="43.0883" rx="2.74717" ry="3.43204" fill="white"/>
<path d="M35.5 78.5526C35.5 80.763 33.5279 82.6287 31 82.6287C28.4721 82.6287 26.5 80.763 26.5 78.5526C26.5 76.3422 28.4721 74.4766 31 74.4766C33.5279 74.4766 35.5 76.3422 35.5 78.5526Z" stroke="white"/>
<ellipse cx="31" cy="78.5527" rx="2" ry="2.28802" fill="white"/>
<path d="M43.9296 70.1204V117.449H17.2867V70.1204M43.9296 70.1204L48.074 65.9688H42.7454H19.655H13.7344L17.2867 70.1204M43.9296 70.1204H17.2867" stroke="white"/>
<path d="M26.5548 44.2324C26.0909 44.2324 20.9486 58.7232 17.8555 65.9687H43.9536L35.0253 44.2324H26.5548Z" stroke="white"/>
<path d="M26.0957 117.45V92.2812H35.7108V117.45" stroke="white"/>
<path d="M32.5 44.2323H29L29.816 42.0986C30.1437 41.2416 31.3563 41.2416 31.684 42.0986L32.5 44.2323Z" stroke="white"/>
<path d="M0 117.449H182" stroke="white" stroke-width="2"/>
<rect x="28.375" y="51.4717" width="4.25" height="10.6901" stroke="white" stroke-width="0.75"/>
<path d="M154.766 78.5526C154.766 80.763 152.794 82.6287 150.266 82.6287C147.738 82.6287 145.766 80.763 145.766 78.5526C145.766 76.3422 147.738 74.4766 150.266 74.4766C152.794 74.4766 154.766 76.3422 154.766 78.5526Z" stroke="white"/>
<ellipse cx="150.266" cy="78.5527" rx="2" ry="2.28802" fill="white"/>
<path d="M163.195 70.1204V117.449H136.552V70.1204M163.195 70.1204L167.34 65.9688H162.011H138.921H133L136.552 70.1204M163.195 70.1204H136.552" stroke="white"/>
<path d="M145.82 44.2324C145.356 44.2324 140.214 58.7232 137.121 65.9687H163.219L154.291 44.2324H145.82Z" stroke="white"/>
<path d="M145.361 117.45V92.2812H154.976V117.45" stroke="white"/>
<path d="M151.766 44.2323H148.266L149.082 42.0986C149.409 41.2416 150.622 41.2416 150.95 42.0986L151.766 44.2323Z" stroke="white"/>
<rect x="147.641" y="51.4717" width="4.25" height="10.6901" stroke="white" stroke-width="0.75"/>
</svg>
