<svg width="60" height="60" viewBox="0 0 60 60" fill="none" xmlns="http://www.w3.org/2000/svg">
<rect x="5" y="5" width="50" height="50" rx="25" fill="#E25420"/>
<path d="M30 5.09961C16.25 5.09961 5 16.3246 5 30.1496C5 42.6496 14.15 53.0246 26.1 54.8996V37.3996H19.75V30.1496H26.1V24.6246C26.1 18.3496 29.825 14.8996 35.55 14.8996C38.275 14.8996 41.125 15.3746 41.125 15.3746V21.5496H37.975C34.875 21.5496 33.9 23.4746 33.9 25.4496V30.1496H40.85L39.725 37.3996H33.9V54.8996C39.7911 53.9692 45.1555 50.9634 49.0248 46.4248C52.8941 41.8861 55.0134 36.1137 55 30.1496C55 16.3246 43.75 5.09961 30 5.09961Z" fill="white"/>
</svg>
