<svg width="41" height="36" viewBox="0 0 41 36" fill="none" xmlns="http://www.w3.org/2000/svg">
<path d="M2.79638 35.0741H9.31565V17.4458L0 9.6582V31.9608C0 33.6869 1.25485 35.0741 2.79638 35.0741Z" fill="#4285F4"/>
<path d="M31.6836 35.0741H38.2029C39.7444 35.0741 40.9992 33.677 40.9992 31.9608V9.6582L31.6836 17.436V35.0741Z" fill="#34A853"/>
<path d="M31.6836 3.95222V17.4358L40.9992 9.65805V5.50439C40.9992 1.66098 37.0553 -0.53933 34.2918 1.77064L31.6836 3.95222Z" fill="#FBBC04"/>
<path d="M9.31641 17.4455V3.95215L20.5011 13.2919L31.6858 3.95215V17.4455L20.5011 26.7754L9.31641 17.4455Z" fill="#EA4335"/>
<path d="M0 5.51318V9.66684L9.31565 17.4446V3.9521L6.70746 1.77943C3.94392 -0.530541 0 1.66977 0 5.51318Z" fill="#C5221F"/>
</svg>
