<svg width="23" height="16" viewBox="0 0 23 16" fill="none" xmlns="http://www.w3.org/2000/svg">
<path d="M1.51335 15.9445H5.04146V7.7369L0 4.11108V14.495C0 15.2986 0.6791 15.9445 1.51335 15.9445Z" fill="#E25420"/>
<path d="M17.1465 15.9445H20.6746C21.5088 15.9445 22.1879 15.294 22.1879 14.495V4.11108L17.1465 7.73233V15.9445Z" fill="#E25420"/>
<path d="M17.1465 1.45455V7.73237L22.1879 4.11113V2.17722C22.1879 0.387769 20.0536 -0.636674 18.558 0.438825L17.1465 1.45455Z" fill="#E25420"/>
<path d="M5.04102 7.73698V1.45459L11.094 5.80307L17.1469 1.45459V7.73698L11.094 12.0809L5.04102 7.73698Z" fill="#E25420"/>
<path d="M0 2.1821V4.11601L5.04146 7.73726V1.45528L3.62995 0.443707C2.13438 -0.631791 0 0.392651 0 2.1821Z" fill="#E25420"/>
</svg>
