<svg width="60" height="60" viewBox="0 0 60 60" fill="none" xmlns="http://www.w3.org/2000/svg">
<rect x="6" y="7" width="47" height="47" rx="13" fill="#E25420"/>
<path d="M30 5C36.7925 5 37.64 5.025 40.305 5.15C42.9675 5.275 44.78 5.6925 46.375 6.3125C48.025 6.9475 49.415 7.8075 50.805 9.195C52.0762 10.4447 53.0599 11.9565 53.6875 13.625C54.305 15.2175 54.725 17.0325 54.85 19.695C54.9675 22.36 55 23.2075 55 30C55 36.7925 54.975 37.64 54.85 40.305C54.725 42.9675 54.305 44.78 53.6875 46.375C53.0617 48.0444 52.0778 49.5565 50.805 50.805C49.5549 52.0758 48.0433 53.0594 46.375 53.6875C44.7825 54.305 42.9675 54.725 40.305 54.85C37.64 54.9675 36.7925 55 30 55C23.2075 55 22.36 54.975 19.695 54.85C17.0325 54.725 15.22 54.305 13.625 53.6875C11.9558 53.0612 10.4438 52.0774 9.195 50.805C7.92352 49.5555 6.93983 48.0437 6.3125 46.375C5.6925 44.7825 5.275 42.9675 5.15 40.305C5.0325 37.64 5 36.7925 5 30C5 23.2075 5.025 22.36 5.15 19.695C5.275 17.03 5.6925 15.22 6.3125 13.625C6.93809 11.9554 7.92201 10.4433 9.195 9.195C10.4442 7.92308 11.9561 6.93932 13.625 6.3125C15.22 5.6925 17.03 5.275 19.695 5.15C22.36 5.0325 23.2075 5 30 5ZM30 17.5C26.6848 17.5 23.5054 18.817 21.1612 21.1612C18.817 23.5054 17.5 26.6848 17.5 30C17.5 33.3152 18.817 36.4946 21.1612 38.8388C23.5054 41.183 26.6848 42.5 30 42.5C33.3152 42.5 36.4946 41.183 38.8388 38.8388C41.183 36.4946 42.5 33.3152 42.5 30C42.5 26.6848 41.183 23.5054 38.8388 21.1612C36.4946 18.817 33.3152 17.5 30 17.5ZM46.25 16.875C46.25 16.0462 45.9208 15.2513 45.3347 14.6653C44.7487 14.0792 43.9538 13.75 43.125 13.75C42.2962 13.75 41.5013 14.0792 40.9153 14.6653C40.3292 15.2513 40 16.0462 40 16.875C40 17.7038 40.3292 18.4987 40.9153 19.0847C41.5013 19.6708 42.2962 20 43.125 20C43.9538 20 44.7487 19.6708 45.3347 19.0847C45.9208 18.4987 46.25 17.7038 46.25 16.875ZM30 22.5C31.9891 22.5 33.8968 23.2902 35.3033 24.6967C36.7098 26.1032 37.5 28.0109 37.5 30C37.5 31.9891 36.7098 33.8968 35.3033 35.3033C33.8968 36.7098 31.9891 37.5 30 37.5C28.0109 37.5 26.1032 36.7098 24.6967 35.3033C23.2902 33.8968 22.5 31.9891 22.5 30C22.5 28.0109 23.2902 26.1032 24.6967 24.6967C26.1032 23.2902 28.0109 22.5 30 22.5Z" fill="white"/>
</svg>
