<svg width="50" height="50" viewBox="0 0 50 50" fill="none" xmlns="http://www.w3.org/2000/svg">
<g clip-path="url(#clip0_797_7183)">
<rect x="-5" y="-4" width="60" height="60" rx="22" fill="#E25420"/>
<path d="M42.6 42.6075H35.195V31.0075C35.195 28.24 35.1375 24.68 31.335 24.68C27.475 24.68 26.885 27.69 26.885 30.8025V42.6075H19.4825V18.75H26.5925V22H26.69C27.6825 20.125 30.1 18.15 33.71 18.15C41.2125 18.15 42.6 23.085 42.6 29.5125V42.6075ZM11.1175 15.485C8.7325 15.485 6.8175 13.5575 6.8175 11.185C6.8175 8.8125 8.735 6.885 11.1175 6.885C12.2579 6.885 13.3517 7.33803 14.1581 8.14444C14.9645 8.95085 15.4175 10.0446 15.4175 11.185C15.4175 12.3254 14.9645 13.4192 14.1581 14.2256C13.3517 15.032 12.2579 15.485 11.1175 15.485ZM14.8275 42.61H7.4025V18.75H14.8275V42.6075V42.61ZM46.3025 0H3.69C1.65 0 0 1.6125 0 3.6V46.4C0 48.3875 1.65 50 3.69 50H46.295C48.3325 50 50 48.39 50 46.4V3.6C50 1.615 48.3325 0 46.295 0H46.3025Z" fill="white"/>
</g>
<defs>
<clipPath id="clip0_797_7183">
<rect width="50" height="50" fill="white"/>
</clipPath>
</defs>
</svg>
