<svg width="593" height="199" viewBox="0 0 593 199" fill="none" xmlns="http://www.w3.org/2000/svg">
<path d="M255.368 1.25114C254.577 2.8315 255.236 6.38728 256.421 6.84822C257.014 7.11162 257.277 7.83594 257.08 8.82365C256.882 10.0089 257.014 10.3382 257.738 10.0748C258.265 9.87723 258.66 10.0748 258.66 10.4699C258.66 10.8649 259.253 12.6428 260.043 14.3549C264.52 24.4296 264.784 25.549 264.455 35.5579C264.323 41.6159 263.928 45.04 263.401 45.5668C263.006 45.9619 262.611 47.213 262.611 48.2007C262.611 50.703 260.306 55.1148 257.804 57.4195C255.433 59.6583 247.993 63.2141 245.754 63.2141C244.832 63.2141 242.725 63.5433 241.079 64.0042C238.708 64.5969 236.667 64.5969 232.387 64.0042C229.292 63.5433 211.447 62.8848 192.812 62.4897C142.833 61.502 141.912 61.4362 140.134 60.7119C135.458 58.8023 132.825 58.5389 122.684 58.8023C112.017 59.0657 107.407 59.6583 104.707 61.1728C103.917 61.5679 102.995 61.8313 102.666 61.6337C102.403 61.4362 101.02 61.8313 99.5713 62.5556C93.1182 65.5846 89.5624 67.165 88.9698 67.165C88.6405 67.165 87.3894 67.6259 86.2042 68.2185C85.0189 68.8111 83.3727 69.3379 82.5167 69.4038C81.6607 69.4038 81.1339 69.6013 81.2656 69.733C81.6607 70.1281 76.9196 71.7743 75.4709 71.7743C74.8125 71.7743 74.2857 72.0377 74.2857 72.4328C74.2857 72.762 73.5614 73.0913 72.6395 73.0913C70.9933 73.0913 70.5982 73.223 66.5156 75.2643C65.2645 75.8569 63.75 76.3837 63.0915 76.3837C62.433 76.3837 61.6429 76.7129 61.4453 77.0421C61.1819 77.4372 60.6551 77.7006 60.2601 77.6348C59.4699 77.5031 58.548 77.8323 52.5558 80.5321C50.9096 81.2564 49.1976 81.9807 48.6708 82.0466C48.2099 82.1124 47.4855 82.5075 47.0905 82.9026C46.6954 83.2977 45.8394 83.6269 45.1809 83.6269C44.5224 83.6269 43.9956 83.8903 43.9956 84.2854C43.9956 84.6147 43.5347 84.9439 43.0079 84.9439C42.4811 84.9439 39.9789 86.2609 37.4108 87.9071C34.8427 89.5533 32.3405 90.8702 31.8796 90.8702C31.3528 90.8702 30.826 91.1336 30.6943 91.4629C30.5626 91.7921 29.5749 92.5823 28.4555 93.2407C22.6609 96.7307 11.2692 107.398 7.44999 112.995C4.81607 116.814 1.78706 123.531 0.733494 127.877C-0.254225 132.091 -0.254225 132.289 1.12858 134.527L2.51139 136.766L9.22788 137.293C12.9812 137.622 28.1921 137.886 43.0737 137.952C59.1406 138.083 71.981 138.412 74.6808 138.873C81.068 139.927 84.6897 139.664 85.2164 138.083C85.6115 136.898 84.1629 134.659 82.3191 133.474C81.8582 133.145 81.7265 132.618 81.924 132.223C82.1874 131.828 82.1216 131.696 81.7265 131.894C80.8705 132.42 78.039 129.457 78.6975 128.733C79.0267 128.469 78.895 128.404 78.4999 128.601C77.7756 128.996 74.7466 124.716 73.1663 121.16C70.9274 116.09 70.664 114.575 70.7299 106.344C70.7957 98.8378 70.9933 97.1258 72.5736 92.5164C73.5614 89.6191 74.9442 86.3267 75.6026 85.1414C76.327 83.9562 76.5904 82.8368 76.2611 82.6392C75.5368 82.1783 72.9687 83.6928 72.9687 84.6147C72.9687 85.0098 72.1127 86.9852 70.9933 89.0923C69.9397 91.1995 68.5569 94.8869 67.9643 97.3233C67.3717 99.7597 66.6473 102.262 66.3181 102.855C65.462 104.501 65.5937 112.666 66.5156 116.353C66.9107 118.131 68.0301 121.753 69.0837 124.453C70.0714 127.152 70.7299 129.589 70.5982 129.852C70.4007 130.181 58.4822 130.379 44.0615 130.379H17.9198L15.8785 128.404C13.508 126.099 13.508 123.794 15.9444 118.263C17.6564 114.444 28.9823 102.328 30.1675 103.052C30.4968 103.25 30.6943 103.052 30.4968 102.591C30.2992 102.064 31.3528 101.011 32.999 99.9572C34.5794 98.9695 36.4231 97.5209 37.0816 96.7965C37.7401 96.0722 38.5961 95.4796 38.9912 95.4796C39.3863 95.4137 40.7691 94.5577 42.0202 93.5041C43.2713 92.3847 44.5224 91.5287 44.9175 91.5287C45.2467 91.5287 46.4978 90.8044 47.6172 89.9483C50.1195 88.0388 67.24 79.6761 68.6228 79.6761C69.1495 79.6761 69.808 79.3468 70.0056 79.0176C70.2031 78.6225 71.0591 78.3591 71.9152 78.3591C72.7053 78.3591 73.6272 78.1616 73.8906 77.8982C74.4832 77.2397 81.6607 75.0667 81.3973 75.5935C81.2656 75.8569 80.0803 78.2274 78.6975 80.9272C77.3805 83.6269 76.2611 86.3267 76.2611 86.9193C76.2611 87.5778 75.866 89.0923 75.3392 90.2776C73.4955 94.7552 74.4174 111.086 76.9196 117.539C77.2488 118.263 77.9732 120.173 78.5658 121.753C81.0022 128.272 87.4553 135.186 94.4352 138.676L98.7811 140.915H114.124C131.376 140.915 132.495 140.717 140.463 136.042C142.372 134.923 143.755 134.527 145.401 134.791C146.653 134.988 153.501 135.318 160.547 135.647C167.592 135.91 183.001 136.569 194.787 137.03C216.583 137.952 279.6 138.281 286.514 137.556C288.555 137.293 290.267 136.898 290.333 136.7C290.333 136.437 289.543 134.857 288.621 133.145L286.975 130.05L254.841 130.247C237.194 130.313 220.732 130.642 218.163 130.906C215.661 131.169 199.068 131.498 181.289 131.63C163.576 131.762 148.233 131.959 147.245 132.091C146.192 132.157 145.401 132.157 145.401 131.959C145.401 131.367 148.628 126.56 149.352 126.099C149.945 125.704 151.723 123.202 154.423 118.856C156.135 116.09 159.888 107.925 159.888 107.003C159.888 106.476 160.086 106.015 160.415 106.015C160.678 106.015 161.468 104.172 162.193 101.867C163.115 98.772 163.444 96.0064 163.444 90.541C163.378 83.9562 163.246 83.0343 161.6 80.0712C158.703 74.8692 156.266 71.6426 152.776 68.2844L149.418 65.1895L152.842 65.1237C163.378 64.7944 201.043 65.3212 208.616 65.848C213.488 66.1772 220.929 66.6382 225.078 66.7699C229.226 66.9674 234.23 67.4283 236.206 67.8893C240.486 68.8112 249.639 68.4161 251.022 67.2308C251.614 66.7699 252.47 66.5065 252.997 66.704C253.524 66.9016 254.314 66.6382 254.709 66.1114C255.17 65.5846 255.894 65.1895 256.421 65.1895C257.606 65.1895 266.562 56.2342 266.562 55.1148C266.562 54.588 267.023 53.7978 267.549 53.3369C268.142 52.8759 268.405 52.3492 268.208 52.1516C268.01 51.9541 268.34 51.2297 268.998 50.5713C269.591 49.9128 269.854 49.1885 269.657 48.9909C269.459 48.7275 269.657 47.7398 270.183 46.8179C270.644 45.8302 271.171 43.0646 271.303 40.6282C271.566 35.097 271.764 35.097 278.283 38.4552C282.497 40.6941 283.419 41.2209 287.633 43.9206C290.004 45.4351 292.572 47.4106 293.428 48.3324C294.218 49.3202 295.14 50.0445 295.469 50.0445C296.523 50.0445 299.025 53.9954 299.025 55.7074C299.025 57.7487 299.222 57.6829 302.976 55.3123C304.688 54.1929 306.334 53.3369 306.663 53.3369C306.992 53.3369 307.585 52.8759 308.112 52.2833C308.573 51.7565 309.824 50.8347 310.943 50.242L312.985 49.2543L311.009 51.4273C309.956 52.6784 308.836 53.7978 308.639 53.9954C308.441 54.1929 307.717 55.2465 307.058 56.4317C306.4 57.617 305.61 58.4072 305.412 58.2755C305.149 58.1438 304.951 58.3413 304.951 58.8023C304.951 59.2632 303.898 61.1728 302.581 63.0824C301.264 64.9261 300.144 66.704 300.144 66.9016C300.144 67.2308 298.959 68.8111 296.193 72.2352C295.798 72.6962 295.469 73.2888 295.403 73.5522C295.206 74.8692 290.465 81.6515 290.004 81.1906C289.74 80.9272 289.74 81.1906 289.938 81.7174C290.135 82.31 289.609 83.4952 288.687 84.483C287.765 85.4707 287.172 86.2609 287.37 86.2609C287.501 86.2609 286.843 87.4461 285.921 88.8948C284.933 90.3434 283.946 91.397 283.682 91.1995C283.419 91.0019 283.221 91.397 283.287 92.0555C283.287 92.6481 282.958 93.1091 282.497 92.9774C281.97 92.9115 281.773 93.1091 282.036 93.5041C282.563 94.3602 280.061 97.5867 279.402 96.9282C279.073 96.6648 279.073 96.7965 279.27 97.2575C279.863 98.2452 274.2 105.554 268.537 111.151C265.574 114.049 261.426 116.683 260.635 116.222C260.24 115.958 259.977 116.156 259.977 116.551C259.977 118.263 248.849 115.432 242.527 112.073C238.313 109.834 220.863 98.1135 220.6 97.3892C220.468 97.0599 220.073 96.7965 219.744 96.7965C218.888 96.7965 211.908 92.1213 211.908 91.5287C211.908 91.2653 211.513 91.0678 211.118 91.0678C210.657 91.0678 207.035 89.1582 203.018 86.7876C192.351 80.5979 179.379 75.1984 169.238 72.8279C165.88 72.0377 165.024 72.0377 164.036 72.762C161.995 74.3424 163.773 75.7252 171.082 78.2933C182.606 82.3758 198.738 90.6068 197.553 91.8579C197.29 92.1872 197.421 92.1872 197.882 91.9238C199.463 91.0678 226.855 111.349 225.934 112.798C225.736 113.193 225.868 113.259 226.329 112.995C226.79 112.666 228.304 113.456 230.016 114.839C231.596 116.156 233.045 117.209 233.243 117.209C233.44 117.209 234.889 118.131 236.535 119.185C247.137 126.362 259.187 128.864 266.891 125.506C270.315 123.926 274.859 120.963 275.912 119.514C276.176 119.185 276.439 119.053 276.439 119.382C276.439 119.646 279.139 116.946 282.431 113.456C285.658 109.9 288.621 107.069 288.884 107.135C289.148 107.201 289.411 106.937 289.411 106.476C289.411 105.686 303.634 86.4584 305.083 85.2731C305.478 84.8781 305.939 84.2854 306.005 83.9562C306.136 82.8368 310.087 77.7006 310.746 77.7006C311.141 77.7006 311.273 77.4372 311.075 77.1738C310.614 76.4495 322.467 61.1069 323.191 61.5679C323.52 61.7654 323.981 61.5679 324.245 61.1728C324.574 60.646 324.442 60.5802 323.849 60.9094C323.323 61.2386 323.125 61.1069 323.323 60.5143C323.52 59.9875 324.047 59.6583 324.442 59.79C324.903 59.8558 325.101 59.7241 324.903 59.3949C323.915 57.7487 335.57 46.0936 339.916 44.4474C342.419 43.5255 343.143 43.4597 347.291 44.3816C349.859 44.9083 354.403 46.2911 357.498 47.4764L363.029 49.7152L360.066 50.1103C358.42 50.3737 355.786 50.9664 354.14 51.4273C351.242 52.2833 351.44 52.2833 360.988 52.8759L370.799 53.4027L377.055 56.4317C386.471 60.9094 392.397 63.3458 394.834 63.675C396.743 64.0042 396.941 63.8726 396.941 62.3581C396.941 60.7777 396.216 60.1851 390.949 56.9585C388.71 55.5757 387.656 54.3904 387.985 53.6661C388.183 53.0735 387.788 52.9418 386.866 53.1393C385.417 53.4027 385.417 53.4027 386.734 52.6126C388.973 51.1639 407.213 50.9664 412.942 52.3492C420.383 54.0612 426.375 56.3659 429.996 58.7364C430.918 59.3949 432.038 59.9217 432.433 59.9217C432.894 59.9217 433.552 60.2509 434.013 60.5802C434.474 60.9752 435.396 61.6996 436.12 62.2922C436.845 62.819 435.923 62.4898 434.013 61.5679C432.104 60.646 430.128 59.9217 429.601 59.9217C429.075 59.9217 428.548 59.5266 428.416 59.1315C427.889 57.6828 415.312 58.0779 408.793 59.7241C405.699 60.5143 402.011 61.3703 400.562 61.6996C399.114 61.963 397.928 62.4897 397.928 62.8848C397.928 63.2141 400.826 64.0043 404.382 64.6627C407.937 65.2554 411.691 66.2431 412.613 66.704C413.6 67.2308 416.827 69.0087 419.856 70.7207C424.992 73.5522 430.194 75.5935 438.096 77.7665C443.495 79.281 455.545 78.8859 461.472 77.108C470.888 74.2107 479.053 68.8112 487.152 60.1192L491.894 54.9831L489.589 59.5924C487.152 64.4652 482.214 71.6426 479.251 74.4741C473.193 80.4004 464.435 85.0756 454.558 87.6437C448.829 89.1582 447.907 89.224 429.075 89.0265C407.542 88.8289 410.044 88.4338 401.287 93.1091C399.509 94.0309 397.336 94.8211 396.546 94.8211C395.69 94.8211 394.834 95.0845 394.636 95.4796C394.439 95.8088 393.517 96.1381 392.595 96.1381C389.039 96.1381 391.41 97.2575 397.138 98.311C407.674 100.155 417.551 100.221 424.597 98.4427C425.98 98.1135 425.782 98.4427 423.28 100.747C420.448 103.447 413.139 107.332 411.098 107.332C407.674 107.332 413.008 110.164 420.975 112.6C431.05 115.629 434.079 116.024 446.458 115.892C455.282 115.827 459.167 115.366 466.542 113.522C471.612 112.271 482.411 107.991 485.045 106.147C486.033 105.488 487.284 104.764 487.811 104.567C493.606 102.525 517.838 79.6761 514.282 79.6761C513.953 79.6761 512.833 80.4662 511.78 81.5198C507.895 85.2073 500.52 90.7385 496.832 92.7798C491.367 95.8088 487.679 96.7965 480.568 97.2575C474.576 97.5867 474.18 97.5209 472.468 96.0722L470.69 94.4919L472.271 91.1995C474.246 87.2486 474.905 86.5243 481.226 80.993C483.926 78.6225 486.296 76.5154 486.494 76.3178C487.416 75.1326 497.952 68.7453 502.627 66.5065C510.265 62.819 517.179 60.646 525.213 59.4607C539.172 57.3536 553.922 60.7119 571.767 69.9306C573.94 71.05 575.85 72.1694 576.047 72.3669C576.245 72.5645 576.837 73.0254 577.43 73.4205C579.34 74.6058 582.171 76.5812 587.044 80.137C589.678 82.0466 591.917 83.6269 592.114 83.6269C592.97 83.6269 591.39 80.993 587.966 76.7129C569.133 53.0735 543.255 42.011 513.162 44.7766C503.878 45.5668 493.869 47.4764 486.692 49.7811C476.288 53.1393 471.612 54.0612 464.04 54.4563C455.348 54.8514 450.87 54.1271 448.039 51.6907C444.22 48.3983 447.71 43.7889 455.809 41.3526C460.55 39.9697 468.847 38.8503 474.839 38.8503C478.526 38.8503 481.226 38.5869 481.226 38.1918C481.226 37.2041 472.073 32.3972 467.069 30.8169C463.316 29.5658 460.879 29.3024 453.899 29.3024C448.697 29.3024 443.89 29.6975 441.717 30.2242C436.515 31.5412 423.741 36.1506 415.707 39.5747C414.259 40.1673 411.296 41.155 409.123 41.8135C406.95 42.4061 403.986 43.2621 402.538 43.6572C400.957 44.1182 395.163 44.4474 388.381 44.4474C382.059 44.4474 376.66 44.7108 376.396 45.04C376.199 45.3693 375.211 45.04 374.289 44.3157C373.367 43.5914 372.84 42.7354 373.104 42.472C373.367 42.2744 373.235 42.1427 372.906 42.2744C372.511 42.4061 369.746 40.8258 366.651 38.8503C355.127 31.3437 342.945 28.5122 334.912 31.6071C333.068 32.3314 331.356 32.7923 331.224 32.6606C331.093 32.4631 330.5 32.7923 329.908 33.3191C329.315 33.9117 326.944 35.7555 324.64 37.5334C322.401 39.2454 318.845 42.5378 316.804 44.7108C313.906 47.8715 312.919 48.5958 312.26 48.0032C311.733 47.6081 311.338 47.4764 311.338 47.8057C311.338 48.069 311.009 48.0032 310.548 47.5423C310.087 47.0813 309.165 46.7521 308.441 46.7521C305.478 46.7521 295.798 42.8671 291.452 39.9039C290.267 39.1137 288.753 38.2577 288.094 37.9943C287.436 37.7309 287.106 37.27 287.304 36.8749C287.501 36.4798 287.238 36.414 286.711 36.6115C286.119 36.809 285.658 36.7432 285.658 36.414C285.658 36.0847 284.736 35.2945 283.682 34.6361C282.497 33.9776 281.838 33.1874 282.102 32.7265C282.365 32.2655 282.299 32.1338 282.036 32.4631C281.312 33.1216 277.69 29.6316 278.217 28.7756C278.414 28.3805 278.283 28.3147 277.888 28.578C277.493 28.7756 276.505 28.0513 275.649 26.9977C274.793 25.8783 273.344 24.1004 272.356 22.981C271.369 21.9274 270.118 20.2154 269.591 19.2276C269.064 18.1741 268.142 16.9888 267.615 16.5279C267.023 16.0011 266.562 15.2109 266.562 14.6841C266.562 14.2232 265.969 13.1696 265.245 12.3795C264.586 11.5893 264.125 10.7332 264.323 10.404C264.52 10.1406 264.389 9.87723 264.06 9.87723C263.599 9.87723 261.228 5.8605 260.965 4.60939C260.833 3.95091 257.014 3.05176e-05 256.553 3.05176e-05C256.289 3.05176e-05 255.763 0.592667 255.368 1.25114ZM126.635 71.7743C126.832 72.1036 127.623 72.4328 128.347 72.4328C129.73 72.4328 135.59 75.9886 137.961 78.2933C140.99 81.1906 145.402 88.8948 146.455 93.1749C147.443 97.1258 147.114 105.554 145.928 107.925C145.27 109.176 144.743 110.493 144.743 110.888C144.743 111.546 143.294 113.39 139.673 117.275C136.973 120.238 133.878 122.872 132.232 123.663C131.31 124.123 130.125 124.716 129.598 125.111C127.491 126.428 122.684 128.404 121.499 128.404C120.774 128.404 119.062 128.733 117.614 129.194C114.453 130.116 108.922 129.194 103.588 126.757C99.9005 125.045 94.0401 119.251 94.0401 117.275C94.0401 116.683 93.7108 115.827 93.3157 115.432C92.789 114.905 92.5256 111.546 92.5256 105.884C92.5256 92.1872 94.5669 85.9316 100.757 79.9395C104.444 76.3837 108.922 73.6839 113.86 72.1694C117.284 71.1158 126.042 70.8524 126.635 71.7743Z" fill="white"/>
<path d="M238.576 27.1294C235.811 28.1171 235.481 28.2488 233.901 29.1707C229.819 31.5412 226.987 33.9776 225.275 36.414C223.036 39.8381 220.468 45.8302 220.468 47.8057C220.468 48.6617 220.205 49.5177 219.81 49.7153C218.822 50.3079 218.954 60.3826 220.007 60.7777C221.917 61.5021 245.227 60.7119 247.466 59.8559C252.931 57.6829 257.541 53.6662 259.582 49.2543C260.965 46.1595 262.018 38.2577 261.294 36.8091C260.899 36.1506 260.635 35.1629 260.635 34.5702C260.635 32.924 257.672 28.9732 255.433 27.5904C253.721 26.6026 252.141 26.3392 246.939 26.4051C243.449 26.4709 239.696 26.8002 238.576 27.1294Z" fill="white"/>
<path d="M312.787 78.1616C312.458 79.2151 311.602 81.9808 311.009 84.4171C310.351 87.1827 309.626 88.6973 309.165 88.4339C308.77 88.2363 308.704 88.368 308.968 88.7631C309.165 89.1582 308.046 92.714 306.334 96.599C298.827 114.115 293.494 127.35 293.098 129.128C292.572 131.828 294.35 134.33 296.852 134.33C298.827 134.33 300.803 132.354 300.803 130.379C300.803 129.852 301.988 126.692 303.502 123.399C305.544 118.856 306.531 117.473 307.322 117.67C307.914 117.802 312.063 117.144 316.54 116.222C321.018 115.3 325.166 114.575 325.825 114.575C326.483 114.575 327.537 115.827 328.525 118C331.356 124.189 335.965 132.354 337.941 134.791C339.39 136.503 341.76 136.766 342.945 135.318C343.801 134.264 342.814 131.169 338.665 122.28C337.348 119.448 336.492 116.814 336.756 116.419C337.019 116.024 336.953 115.892 336.558 116.09C336.163 116.353 335.57 115.761 335.109 114.839C334.188 112.666 334.122 112.798 336.295 112.073C337.546 111.612 338.27 110.822 338.468 109.703C338.731 108.32 338.468 107.925 336.821 107.332C335.768 107.003 334.056 106.674 333.134 106.674C331.554 106.674 331.159 106.015 327.8 97.2575C323.257 85.339 319.635 77.964 317.989 77.108C315.553 75.791 313.511 76.252 312.787 78.1616ZM323.454 106.542C323.849 107.661 323.52 107.859 321.084 108.254C315.421 108.978 310.021 109.439 310.021 109.176C310.021 109.044 311.207 105.949 312.721 102.328C314.17 98.772 315.684 94.9528 316.079 93.9651C316.738 92.1213 316.87 92.253 319.899 98.7061C321.676 102.328 323.257 105.818 323.454 106.542Z" fill="white"/>
<path d="M369.614 79.3468C366.716 79.8078 362.304 80.6638 359.736 81.2564C357.234 81.8491 353.283 82.31 351.044 82.31C345.579 82.31 345.316 82.8368 345.908 92.6481C346.369 99.8256 346.369 100.221 344.986 101.143C343.34 102.328 343.143 105.093 344.657 107.201C345.447 108.386 345.579 109.769 345.25 114.115C345.052 117.078 344.723 121.029 344.591 122.938C344.46 124.848 343.999 127.021 343.604 127.811C342.55 129.655 343.274 132.091 345.184 133.408C346.698 134.33 347.159 134.264 352.625 132.42C360.131 129.852 365.268 129.062 374.42 129.062C378.503 129.062 382.454 128.733 383.178 128.404C384.824 127.482 384.824 125.375 383.178 124.453C380.874 123.267 369.153 122.411 360.527 122.872L352.164 123.333L352.559 115.497C352.822 111.217 353.086 107.596 353.086 107.53C353.415 107.069 380.808 102.196 381.269 102.459C381.532 102.657 381.795 102.525 381.795 102.196C381.795 101.801 382.586 101.34 383.507 101.143C385.878 100.55 388.38 98.772 388.38 97.7843C388.38 95.0186 385.285 95.1503 356.181 99.2329L353.283 99.628L353.612 94.887C353.81 92.3189 354.073 90.0142 354.271 89.8825C354.469 89.685 357.563 88.7631 361.119 87.7754C366.914 86.2609 369.153 86.0633 381.466 85.7999C389.105 85.6682 395.689 85.4048 396.15 85.2731C396.545 85.1415 396.94 84.3513 396.94 83.6269C396.94 81.454 392.397 79.8078 384.034 79.0176C375.737 78.2274 376.396 78.2274 369.614 79.3468Z" fill="white"/>
<path d="M406.489 114.51C406.357 114.839 407.871 115.432 409.979 115.827C412.02 116.288 415.51 117.473 417.683 118.592C419.856 119.646 421.041 120.304 420.317 120.107C417.485 119.185 412.086 119.053 411.098 119.843C408.991 121.621 410.308 123.597 415.839 126.889C424.202 131.762 437.042 132.42 443.166 128.272C444.088 127.613 445.076 127.087 445.273 127.087C445.734 127.087 447.38 125.77 451.068 122.543C454.294 119.712 453.438 118.724 449.553 120.633C445.339 122.741 437.24 122.543 430.852 120.173C419.592 116.024 414.127 114.378 410.637 114.18C408.53 114.049 406.686 114.246 406.489 114.51Z" fill="white"/>
<path d="M0.140812 151.78C-0.0567321 152.306 -0.0567321 153.031 0.20666 153.426C0.470052 153.887 86.2041 154.084 280.785 154.084H560.968L560.77 152.57L560.573 151.121L280.521 150.924C36.0938 150.792 0.470052 150.924 0.140812 151.78Z" fill="white"/>
<path d="M94.8302 164.422C92.3938 170.612 91.9329 182.399 93.7108 190.959C94.896 196.622 95.2911 197.215 97.5958 196.622L99.242 196.227L97.9909 193.395C95.8179 188.457 95.0277 180.621 96.0154 174.036C96.4764 170.875 97.2665 167.188 97.7275 165.805C98.1884 164.488 98.386 163.237 98.1884 163.04C97.2007 162.052 95.4228 162.776 94.8302 164.422Z" fill="white"/>
<path d="M245.49 163.237C245.49 163.566 246.083 166.134 246.807 168.966C248.519 175.748 248.519 183.848 246.807 190.301C245.161 196.556 245.161 197.017 246.939 196.754C247.992 196.622 248.651 195.634 249.639 192.935C251.482 187.798 251.614 172.719 249.836 166.727C248.783 163.237 248.388 162.645 247.071 162.645C246.215 162.645 245.49 162.908 245.49 163.237Z" fill="white"/>
<path d="M3.82826 179.436C4.1575 194.054 4.22335 194.581 5.47446 194.581C6.72557 194.581 6.79142 194.12 6.79142 179.502V164.422L5.14522 164.357L3.49902 164.291L3.82826 179.436Z" fill="white"/>
<path d="M31.0235 164.422C30.365 164.686 30.1675 168.176 30.1675 179.106C30.1675 191.025 30.365 193.593 31.1552 194.252C31.9454 194.91 32.3405 194.91 33.1306 194.252C33.9208 193.593 34.1184 191.025 34.1184 179.106C34.1184 166.003 33.9867 164.752 32.9989 164.488C32.3405 164.291 31.4186 164.291 31.0235 164.422Z" fill="white"/>
<path d="M56.3751 164.686C56.0458 164.949 55.8483 165.674 55.98 166.332C56.1117 167.32 56.9018 167.649 59.2724 167.781L62.4331 167.978L62.5648 181.279C62.7623 194.054 62.8282 194.581 64.0793 194.581C65.3304 194.581 65.3962 194.054 65.5938 181.214L65.7255 167.912H68.7545C71.5859 167.912 71.7176 167.847 71.5201 166.2L71.3225 164.488L64.211 164.422C60.2601 164.357 56.7701 164.488 56.3751 164.686Z" fill="white"/>
<path d="M120.379 179.172V194.252H126.832C130.52 194.252 134.01 193.922 134.997 193.461C139.212 191.486 140.726 185.165 138.224 180.292C137.565 178.909 136.841 177.987 136.709 178.185C136.512 178.316 135.985 178.053 135.59 177.526C134.997 176.802 134.932 176.209 135.458 175.221C136.446 173.378 136.38 170.151 135.195 167.912C133.746 165.081 130.783 163.896 125.186 164.027L120.379 164.159V179.172ZM131.639 169.361C133.22 171.271 133.22 172.588 131.639 174.365C130.717 175.485 129.664 175.814 127.03 175.814H123.672V171.863V167.912H127.03C129.664 167.912 130.651 168.242 131.639 169.361ZM133.088 180.555C135.722 181.806 137.105 185.889 135.59 188.194C134.536 189.906 131.376 190.959 127.557 190.959H123.672V185.362V179.765H127.491C129.598 179.765 132.1 180.16 133.088 180.555Z" fill="white"/>
<path d="M162.061 164.422C161.403 164.62 161.205 168.307 161.205 179.502V194.317L163.049 194.12L164.827 193.922L165.024 186.811L165.222 179.765H171.675C177.009 179.765 178.26 179.963 178.589 180.819C178.786 181.411 178.984 184.638 178.984 188.062C178.984 194.252 178.984 194.252 180.63 194.252H182.276V179.502C182.276 170.217 182.013 164.554 181.618 164.291C181.223 164.093 180.433 164.027 179.774 164.225C178.786 164.554 178.655 165.344 178.852 169.69C179.182 176.143 178.786 176.473 170.951 176.473H165.156V171.271C165.156 164.291 164.695 163.303 162.061 164.422Z" fill="white"/>
<path d="M205.652 164.357C204.994 164.62 204.994 187.14 205.652 190.103C206.245 192.605 209.603 194.449 213.817 194.515C220.007 194.647 222.839 192.21 223.102 186.679C223.168 185.23 223.234 179.502 223.168 173.97C223.102 163.896 223.102 163.896 221.653 164.093C220.139 164.291 220.139 164.422 219.941 176.67L219.81 189.05L217.637 190.301C215.332 191.749 212.764 191.618 210.13 189.906C208.681 188.984 208.615 188.589 208.484 176.67C208.286 166.266 208.155 164.291 207.299 164.159C206.772 164.093 206.047 164.159 205.652 164.357Z" fill="white"/>
<path d="M298.235 164.554C297.51 165.015 298.103 167.517 301.329 177.526C303.568 184.374 305.544 190.762 305.807 191.749C306.202 193.659 307.717 195.305 308.243 194.449C308.902 193.33 317.265 166.793 317.265 165.805C317.265 165.213 317.001 164.554 316.738 164.357C315.948 163.896 313.248 164.686 313.643 165.278C313.841 165.542 312.589 170.019 310.943 175.221C309.297 180.423 307.914 184.967 307.783 185.296C307.717 185.625 306.268 181.477 304.556 176.078C300.605 163.698 300.342 163.237 298.235 164.554Z" fill="white"/>
<path d="M557.676 171.732C556.885 173.246 557.939 175.156 559.585 175.156C561.231 175.156 561.758 174.168 561.297 172.127C560.77 170.217 558.597 169.954 557.676 171.732Z" fill="white"/>
<path d="M343.275 176.736C339.587 178.382 338.073 180.687 337.809 185.23C337.546 189.05 337.678 189.445 339.653 191.42C342.287 194.054 345.579 195.173 348.74 194.515C352.296 193.791 352.427 193.791 353.218 194.383C353.613 194.712 354.469 194.778 355.061 194.515C355.983 194.186 356.115 192.803 356.115 185.362C356.115 178.25 355.917 176.538 355.127 176.209C354.6 176.012 353.744 176.275 353.218 176.802C352.427 177.658 351.967 177.658 349.925 176.802C347.094 175.617 345.843 175.617 343.275 176.736ZM349.201 180.028C353.086 181.675 354.074 186.152 351.242 189.445C349.991 190.893 349.135 191.288 346.896 191.288C340.443 191.288 338.599 182.662 344.46 180.094C347.094 178.909 346.567 178.975 349.201 180.028Z" fill="white"/>
<path d="M382.849 176.275C382.586 176.538 381.401 176.67 380.149 176.604L377.845 176.407V184.901C377.845 191.552 378.042 193.593 378.832 194.252C380.544 195.634 381.137 194.252 381.137 188.984C381.137 181.675 382.586 178.382 385.088 179.897C386.603 180.884 388.38 180.094 388.38 178.514C388.38 176.934 384.034 175.156 382.849 176.275Z" fill="white"/>
<path d="M413.732 176.802C412.678 177.394 411.295 178.382 410.703 179.106C410.11 179.765 409.452 180.226 409.32 180.094C409.123 179.897 408.991 180.16 408.925 180.621C408.859 181.016 408.662 182.662 408.398 184.243C408.135 186.35 408.332 187.667 409.32 189.576C410.11 191.025 410.505 192.342 410.242 192.605C409.979 192.869 410.11 193 410.439 192.869C410.835 192.803 412.217 193.198 413.534 193.791C416.563 195.173 419.066 195.173 421.502 193.988C422.49 193.461 423.28 193.264 423.28 193.593C423.28 194.383 425.387 195.042 425.98 194.449C426.243 194.186 426.572 189.906 426.704 185.033L426.901 176.077L425.124 176.341C424.07 176.473 423.28 176.868 423.28 177.131C423.28 177.394 422.16 177.263 420.843 176.736C417.551 175.617 416.102 175.617 413.732 176.802ZM421.963 181.411C424.992 184.638 423.016 190.367 418.605 191.288C414.39 192.21 410.374 187.206 412.02 183.189C412.876 181.214 415.049 179.502 416.037 180.094C416.432 180.358 416.695 180.226 416.695 179.897C416.695 178.777 420.58 179.897 421.963 181.411Z" fill="white"/>
<path d="M450.146 176.275C449.092 176.538 448.96 177.526 448.96 185.362C448.96 190.235 449.224 194.317 449.553 194.515C449.882 194.778 450.607 194.712 451.199 194.515C452.055 194.186 452.253 193 452.253 187.996C452.253 183.255 452.516 181.609 453.306 180.819C454.623 179.436 456.796 179.37 456.335 180.687C456.204 181.016 456.599 180.884 457.191 180.423C459.035 178.909 459.76 180.687 460.023 187.535C460.286 194.317 460.747 195.634 462.459 194.252C463.908 193.066 463.842 182.465 462.393 179.567C461.011 176.868 461.34 177.131 458.245 176.407C456.665 176.077 454.953 176.077 454.031 176.407C453.109 176.736 452.187 176.802 451.858 176.538C451.529 176.275 450.738 176.143 450.146 176.275Z" fill="white"/>
<path d="M489.984 177.131C481.489 180.95 483.531 193.461 492.881 194.712C494.527 194.91 496.173 194.712 497.425 194.054C499.071 193.198 499.466 193.198 500.19 194.054C502.166 196.095 502.627 194.581 502.824 185.494L503.022 176.473H501.31C500.388 176.473 499.663 176.736 499.663 177.065C499.663 177.46 498.61 177.263 497.359 176.736C494.396 175.551 493.342 175.551 489.984 177.131ZM498.083 181.148C498.939 181.938 499.466 183.321 499.532 185.033C499.663 187.272 499.4 188.062 497.688 189.774C495.976 191.42 495.317 191.683 493.54 191.354C489.062 190.432 486.889 186.152 489.128 182.531C491.301 178.975 495.054 178.448 498.083 181.148Z" fill="white"/>
<path d="M527.32 176.736C526.859 177.394 526.134 177.724 525.739 177.592C525.278 177.394 524.949 178.382 524.818 179.963C524.62 183.123 525.805 184.704 529.822 186.416C532.917 187.733 533.839 189.115 532.588 190.63C531.468 192.013 529.756 191.881 527.781 190.301C525.739 188.654 524.027 188.589 524.027 190.103C524.093 191.815 525.476 193.461 527.583 194.252C530.744 195.437 532.588 195.042 534.958 192.671C536.934 190.696 537.065 190.235 536.538 188.457C535.682 185.362 535.419 185.099 531.534 183.387C527.781 181.74 527.188 180.884 529.163 179.831C530.02 179.37 530.941 179.436 532.258 180.16C534.234 181.148 535.88 180.489 535.88 178.711C535.88 176.604 528.834 175.024 527.32 176.736Z" fill="white"/>
<path d="M557.61 185.296C557.61 192.935 557.741 194.186 558.729 194.515C559.322 194.778 560.046 194.712 560.309 194.449C560.704 194.054 561.165 182.07 560.968 177.263C560.902 176.868 560.178 176.473 559.256 176.473H557.61V185.296Z" fill="white"/>
<path d="M274.002 192.342C273.278 194.252 272.685 194.844 271.961 194.581C271.237 194.317 271.171 194.449 271.698 195.108C272.29 195.766 272.29 196.161 271.698 196.754C271.105 197.346 271.303 197.676 272.488 198.071C273.871 198.598 274.2 198.334 275.649 195.437C276.505 193.725 277.492 192.276 277.822 192.276C278.875 192.276 277.69 190.432 276.373 190.103C275.319 189.84 274.858 190.301 274.002 192.342Z" fill="white"/>
</svg>
