<svg width="59" height="59" viewBox="0 0 59 59" fill="none" xmlns="http://www.w3.org/2000/svg">
<path d="M29.1667 40.8333C29.9931 40.8333 30.6863 40.5533 31.2463 39.9933C31.8043 39.4353 32.0833 38.7431 32.0833 37.9167V28.5833L34.7083 31.2083C35.2431 31.7431 35.9236 32.0104 36.75 32.0104C37.5764 32.0104 38.2569 31.7431 38.7917 31.2083C39.3264 30.6736 39.5938 29.9931 39.5938 29.1667C39.5938 28.3403 39.3264 27.6597 38.7917 27.125L31.2083 19.5417C30.9167 19.25 30.6007 19.0429 30.2604 18.9204C29.9201 18.7999 29.5556 18.7396 29.1667 18.7396C28.7778 18.7396 28.4132 18.7999 28.0729 18.9204C27.7326 19.0429 27.4167 19.25 27.125 19.5417L19.5417 27.125C19.0069 27.6597 18.7396 28.3403 18.7396 29.1667C18.7396 29.9931 19.0069 30.6736 19.5417 31.2083C20.0764 31.7431 20.7569 32.0104 21.5833 32.0104C22.4097 32.0104 23.0903 31.7431 23.625 31.2083L26.25 28.5833V37.9167C26.25 38.7431 26.53 39.4353 27.09 39.9933C27.6481 40.5533 28.3403 40.8333 29.1667 40.8333ZM29.1667 58.3333C25.1319 58.3333 21.3403 57.5672 17.7917 56.035C14.2431 54.5047 11.1563 52.4271 8.53125 49.8021C5.90625 47.1771 3.82861 44.0903 2.29833 40.5417C0.766111 36.9931 0 33.2014 0 29.1667C0 25.1319 0.766111 21.3403 2.29833 17.7917C3.82861 14.2431 5.90625 11.1563 8.53125 8.53125C11.1563 5.90625 14.2431 3.82764 17.7917 2.29542C21.3403 0.765139 25.1319 0 29.1667 0C33.2014 0 36.9931 0.765139 40.5417 2.29542C44.0903 3.82764 47.1771 5.90625 49.8021 8.53125C52.4271 11.1563 54.5047 14.2431 56.035 17.7917C57.5672 21.3403 58.3333 25.1319 58.3333 29.1667C58.3333 33.2014 57.5672 36.9931 56.035 40.5417C54.5047 44.0903 52.4271 47.1771 49.8021 49.8021C47.1771 52.4271 44.0903 54.5047 40.5417 56.035C36.9931 57.5672 33.2014 58.3333 29.1667 58.3333Z" fill="white"/>
</svg>
