<svg width="32" height="32" viewBox="0 0 32 32" fill="none" xmlns="http://www.w3.org/2000/svg">
<rect x="2.66797" y="2.6665" width="26.6667" height="26.6667" rx="13.3333" fill="#E25420"/>
<path d="M16.0013 2.71997C8.66797 2.71997 2.66797 8.70664 2.66797 16.08C2.66797 22.7466 7.54797 28.28 13.9213 29.28V19.9466H10.5346V16.08H13.9213V13.1333C13.9213 9.78664 15.908 7.94664 18.9613 7.94664C20.4146 7.94664 21.9346 8.19997 21.9346 8.19997V11.4933H20.2546C18.6013 11.4933 18.0813 12.52 18.0813 13.5733V16.08H21.788L21.188 19.9466H18.0813V29.28C21.2232 28.7838 24.0842 27.1807 26.1479 24.76C28.2115 22.3394 29.3418 19.2608 29.3346 16.08C29.3346 8.70664 23.3346 2.71997 16.0013 2.71997Z" fill="#E3E3E3"/>
</svg>
