<svg width="30" height="30" viewBox="0 0 30 30" fill="none" xmlns="http://www.w3.org/2000/svg">
<rect x="3" y="3.5" width="23.5" height="23.5" rx="11.75" fill="#E25420"/>
<path d="M15 2.5C18.3962 2.5 18.82 2.5125 20.1525 2.575C21.4837 2.6375 22.39 2.84625 23.1875 3.15625C24.0125 3.47375 24.7075 3.90375 25.4025 4.5975C26.0381 5.22237 26.5299 5.97824 26.8437 6.8125C27.1525 7.60875 27.3625 8.51625 27.425 9.8475C27.4837 11.18 27.5 11.6037 27.5 15C27.5 18.3962 27.4875 18.82 27.425 20.1525C27.3625 21.4837 27.1525 22.39 26.8437 23.1875C26.5308 24.0222 26.0389 24.7783 25.4025 25.4025C24.7775 26.0379 24.0216 26.5297 23.1875 26.8437C22.3912 27.1525 21.4837 27.3625 20.1525 27.425C18.82 27.4837 18.3962 27.5 15 27.5C11.6037 27.5 11.18 27.4875 9.8475 27.425C8.51625 27.3625 7.61 27.1525 6.8125 26.8437C5.97791 26.5306 5.22191 26.0387 4.5975 25.4025C3.96176 24.7777 3.46991 24.0218 3.15625 23.1875C2.84625 22.3912 2.6375 21.4837 2.575 20.1525C2.51625 18.82 2.5 18.3962 2.5 15C2.5 11.6037 2.5125 11.18 2.575 9.8475C2.6375 8.515 2.84625 7.61 3.15625 6.8125C3.46905 5.97772 3.961 5.22165 4.5975 4.5975C5.22209 3.96154 5.97804 3.46966 6.8125 3.15625C7.61 2.84625 8.515 2.6375 9.8475 2.575C11.18 2.51625 11.6037 2.5 15 2.5ZM15 8.75C13.3424 8.75 11.7527 9.40848 10.5806 10.5806C9.40848 11.7527 8.75 13.3424 8.75 15C8.75 16.6576 9.40848 18.2473 10.5806 19.4194C11.7527 20.5915 13.3424 21.25 15 21.25C16.6576 21.25 18.2473 20.5915 19.4194 19.4194C20.5915 18.2473 21.25 16.6576 21.25 15C21.25 13.3424 20.5915 11.7527 19.4194 10.5806C18.2473 9.40848 16.6576 8.75 15 8.75ZM23.125 8.4375C23.125 8.0231 22.9604 7.62567 22.6674 7.33265C22.3743 7.03962 21.9769 6.875 21.5625 6.875C21.1481 6.875 20.7507 7.03962 20.4576 7.33265C20.1646 7.62567 20 8.0231 20 8.4375C20 8.8519 20.1646 9.24933 20.4576 9.54235C20.7507 9.83538 21.1481 10 21.5625 10C21.9769 10 22.3743 9.83538 22.6674 9.54235C22.9604 9.24933 23.125 8.8519 23.125 8.4375ZM15 11.25C15.9946 11.25 16.9484 11.6451 17.6516 12.3483C18.3549 13.0516 18.75 14.0054 18.75 15C18.75 15.9946 18.3549 16.9484 17.6516 17.6516C16.9484 18.3549 15.9946 18.75 15 18.75C14.0054 18.75 13.0516 18.3549 12.3483 17.6516C11.6451 16.9484 11.25 15.9946 11.25 15C11.25 14.0054 11.6451 13.0516 12.3483 12.3483C13.0516 11.6451 14.0054 11.25 15 11.25Z" fill="#E3E3E3"/>
</svg>
