<svg width="26" height="26" viewBox="0 0 26 26" fill="none" xmlns="http://www.w3.org/2000/svg">
<g clip-path="url(#clip0_198_186)">
<rect x="-4.64062" y="-3.71167" width="55.68" height="55.68" rx="20.416" fill="#E25420"/>
<path d="M22.152 22.1561H18.3014V16.1241C18.3014 14.685 18.2715 12.8338 16.2942 12.8338C14.287 12.8338 13.9802 14.399 13.9802 16.0175V22.1561H10.1309V9.75024H13.8281V11.4402H13.8788C14.3949 10.4652 15.652 9.43824 17.5292 9.43824C21.4305 9.43824 22.152 12.0044 22.152 15.3467V22.1561ZM5.7811 8.05244C4.5409 8.05244 3.5451 7.05014 3.5451 5.81644C3.5451 4.58274 4.5422 3.58044 5.7811 3.58044C6.37412 3.58044 6.94286 3.81602 7.36219 4.23535C7.78152 4.65468 8.0171 5.22342 8.0171 5.81644C8.0171 6.40947 7.78152 6.9782 7.36219 7.39753C6.94286 7.81687 6.37412 8.05244 5.7811 8.05244ZM7.7103 22.1574H3.8493V9.75024H7.7103V22.1561V22.1574ZM24.0773 0.000244141H1.9188C0.858 0.000244141 0 0.838744 0 1.87224V24.1282C0 25.1617 0.858 26.0002 1.9188 26.0002H24.0734C25.1329 26.0002 26 25.163 26 24.1282V1.87224C26 0.840044 25.1329 0.000244141 24.0734 0.000244141H24.0773Z" fill="#E3E3E3"/>
</g>
<defs>
<clipPath id="clip0_198_186">
<rect width="26" height="26" fill="white"/>
</clipPath>
</defs>
</svg>
