<svg width="219" height="68" viewBox="0 0 219 68" fill="none" xmlns="http://www.w3.org/2000/svg">
<path d="M94.4139 0.53907C94.1218 1.07629 94.3652 2.28503 94.8035 2.44171C95.0226 2.53125 95.1199 2.77747 95.0469 3.11323C94.9739 3.51614 95.0226 3.62807 95.2904 3.53853C95.4851 3.47138 95.6312 3.53853 95.6312 3.67284C95.6312 3.80714 95.8503 4.41151 96.1424 4.9935C97.7979 8.41825 97.8953 8.79878 97.7736 12.2012C97.7249 14.2605 97.5788 15.4245 97.3841 15.6035C97.238 15.7378 97.0919 16.1631 97.0919 16.4989C97.0919 17.3495 96.2398 18.8492 95.3147 19.6327C94.4383 20.3937 91.6873 21.6025 90.8595 21.6025C90.5187 21.6025 89.7397 21.7144 89.131 21.8711C88.2546 22.0725 87.4999 22.0725 85.9175 21.8711C84.7732 21.7144 78.1757 21.4905 71.286 21.3562C52.808 21.0205 52.4672 20.9981 51.8099 20.7519C50.0814 20.1027 49.1075 20.0132 45.3584 20.1027C41.4145 20.1923 39.7103 20.3937 38.7122 20.9085C38.42 21.0429 38.0792 21.1324 37.9575 21.0652C37.8601 20.9981 37.3488 21.1324 36.8132 21.3786C34.4274 22.4083 33.1128 22.9455 32.8937 22.9455C32.7719 22.9455 32.3094 23.1022 31.8712 23.3036C31.4329 23.5051 30.8243 23.6842 30.5078 23.7066C30.1913 23.7066 29.9966 23.7737 30.0453 23.8185C30.1913 23.9528 28.4385 24.5124 27.9029 24.5124C27.6594 24.5124 27.4647 24.6019 27.4647 24.7362C27.4647 24.8481 27.1969 24.9601 26.856 24.9601C26.2474 24.9601 26.1013 25.0048 24.5919 25.6987C24.1294 25.9002 23.5694 26.0793 23.326 26.0793C23.0825 26.0793 22.7904 26.1912 22.7174 26.3031C22.62 26.4374 22.4252 26.5269 22.2791 26.5046C21.987 26.4598 21.6462 26.5717 19.4308 27.4895C18.8221 27.7357 18.1892 27.9819 17.9944 28.0043C17.824 28.0267 17.5562 28.161 17.4101 28.2953C17.264 28.4296 16.9476 28.5415 16.7041 28.5415C16.4606 28.5415 16.2659 28.631 16.2659 28.7653C16.2659 28.8773 16.0955 28.9892 15.9007 28.9892C15.7059 28.9892 14.7808 29.4369 13.8314 29.9965C12.8819 30.5561 11.9568 31.0038 11.7864 31.0038C11.5916 31.0038 11.3969 31.0933 11.3482 31.2052C11.2995 31.3171 10.9343 31.5857 10.5204 31.8096C8.37805 32.9959 4.16633 36.6221 2.75431 38.5248C1.7805 39.8231 0.660624 42.1062 0.271101 43.5836C-0.0940767 45.0162 -0.0940767 45.0833 0.417172 45.8444L0.928421 46.6054L3.41163 46.7845C4.79931 46.8964 10.423 46.986 15.9251 47.0083C21.8653 47.0531 26.6126 47.165 27.6107 47.3217C29.9722 47.6799 31.3112 47.5903 31.506 47.0531C31.652 46.6502 31.1165 45.8891 30.4348 45.4862C30.2644 45.3743 30.2157 45.1952 30.2887 45.0609C30.3861 44.9266 30.3618 44.8819 30.2157 44.949C29.8992 45.1281 28.8524 44.1208 29.0958 43.8746C29.2175 43.785 29.1688 43.7627 29.0228 43.8298C28.755 43.9641 27.6351 42.5092 27.0508 41.3004C26.2231 39.5768 26.1257 39.062 26.15 36.264C26.1744 33.7122 26.2474 33.1302 26.8317 31.5634C27.1969 30.5785 27.7081 29.4593 27.9516 29.0563C28.2194 28.6534 28.3168 28.2729 28.195 28.2057C27.9272 28.0491 26.9778 28.5639 26.9778 28.8773C26.9778 29.0116 26.6613 29.6831 26.2474 30.3994C25.8579 31.1157 25.3466 32.3692 25.1275 33.1974C24.9084 34.0256 24.6406 34.8762 24.5189 35.0776C24.2024 35.6372 24.2511 38.4129 24.5919 39.6664C24.738 40.2707 25.1519 41.5019 25.5414 42.4196C25.9066 43.3374 26.15 44.1656 26.1013 44.2551C26.0283 44.367 21.6218 44.4342 16.2902 44.4342H6.62519L5.87049 43.7627C4.99407 42.9792 4.99407 42.1958 5.89484 40.3155C6.52781 39.0172 10.7152 34.8986 11.1534 35.1448C11.2751 35.212 11.3482 35.1448 11.2751 34.9881C11.2021 34.809 11.5916 34.4509 12.2002 34.0928C12.7845 33.757 13.4662 33.2645 13.7096 33.0183C13.9531 32.7721 14.2696 32.5706 14.4157 32.5706C14.5617 32.5483 15.073 32.2573 15.5355 31.8991C15.9981 31.5186 16.4606 31.2276 16.6067 31.2276C16.7284 31.2276 17.191 30.9814 17.6049 30.6904C18.53 30.0412 24.8597 27.1985 25.371 27.1985C25.5658 27.1985 25.8092 27.0865 25.8822 26.9746C25.9553 26.8403 26.2718 26.7508 26.5882 26.7508C26.8804 26.7508 27.2212 26.6836 27.3186 26.5941C27.5377 26.3703 30.1913 25.6316 30.094 25.8107C30.0453 25.9002 29.6071 26.706 29.0958 27.6238C28.6089 28.5415 28.195 29.4593 28.195 29.6607C28.195 29.8846 28.049 30.3994 27.8542 30.8023C27.1725 32.3244 27.5134 37.8757 28.4385 40.0693C28.5602 40.3155 28.828 40.9647 29.0471 41.5019C29.9479 43.7179 32.3337 46.0682 34.9143 47.2546L36.5211 48.0156H42.1935C48.5719 48.0156 48.9858 47.9485 51.9316 46.3592C52.6376 45.9787 53.1488 45.8444 53.7575 45.9339C54.22 46.0011 56.7519 46.113 59.3569 46.2249C61.9618 46.3144 67.6586 46.5383 72.0164 46.695C80.0746 47.0083 103.373 47.1203 105.929 46.874C106.684 46.7845 107.317 46.6502 107.341 46.583C107.341 46.4935 107.049 45.9563 106.708 45.3743L106.1 44.3223L94.2192 44.3894C87.6947 44.4118 81.6084 44.5237 80.6589 44.6133C79.7338 44.7028 73.5988 44.8147 67.0256 44.8595C60.4767 44.9042 54.8043 44.9714 54.4391 45.0162C54.0496 45.0385 53.7575 45.0385 53.7575 44.9714C53.7575 44.7699 54.9504 43.1359 55.2182 42.9792C55.4373 42.8449 56.0946 41.9943 57.0928 40.517C57.7257 39.5768 59.1134 36.8012 59.1134 36.4878C59.1134 36.3088 59.1865 36.1521 59.3082 36.1521C59.4056 36.1521 59.6977 35.5253 59.9655 34.7419C60.3063 33.6898 60.4281 32.7497 60.4281 30.8918C60.4037 28.6534 60.355 28.3401 59.7464 27.3328C58.6752 25.5644 57.7744 24.4676 56.4841 23.326L55.2425 22.274L56.5085 22.2516C60.4037 22.1397 74.3292 22.3187 77.1289 22.4978C78.9304 22.6097 81.6814 22.7664 83.2152 22.8112C84.7489 22.8783 86.5991 23.035 87.3295 23.1917C88.9119 23.5051 92.2959 23.3708 92.8072 22.9679C93.0263 22.8112 93.3428 22.7217 93.5375 22.7888C93.7323 22.856 94.0244 22.7664 94.1705 22.5874C94.3409 22.4083 94.6087 22.274 94.8035 22.274C95.2417 22.274 98.5526 19.2297 98.5526 18.8492C98.5526 18.6701 98.723 18.4015 98.9178 18.2448C99.1369 18.0882 99.2343 17.9091 99.1612 17.8419C99.0882 17.7748 99.2099 17.5286 99.4534 17.3047C99.6725 17.0809 99.7699 16.8347 99.6968 16.7675C99.6238 16.678 99.6968 16.3422 99.8916 16.0288C100.062 15.6931 100.257 14.7529 100.305 13.9247C100.403 12.0445 100.476 12.0445 102.886 13.1861C104.444 13.9471 104.785 14.1262 106.343 15.0439C107.22 15.5588 108.169 16.2303 108.485 16.5437C108.778 16.8794 109.118 17.1256 109.24 17.1256C109.63 17.1256 110.555 18.4687 110.555 19.0507C110.555 19.7446 110.628 19.7222 112.016 18.9164C112.648 18.5358 113.257 18.2448 113.379 18.2448C113.501 18.2448 113.72 18.0882 113.914 17.8867C114.085 17.7076 114.547 17.3943 114.961 17.1928L115.716 16.857L114.986 17.5957C114.596 18.021 114.182 18.4015 114.109 18.4687C114.036 18.5358 113.768 18.894 113.525 19.2969C113.281 19.6998 112.989 19.9684 112.916 19.9237C112.819 19.8789 112.746 19.946 112.746 20.1027C112.746 20.2594 112.356 20.9085 111.869 21.5577C111.383 22.1844 110.969 22.7888 110.969 22.856C110.969 22.9679 110.53 23.5051 109.508 24.6691C109.362 24.8258 109.24 25.0272 109.216 25.1167C109.143 25.5644 107.39 27.87 107.22 27.7133C107.122 27.6238 107.122 27.7133 107.195 27.8924C107.268 28.0938 107.073 28.4967 106.733 28.8325C106.392 29.1683 106.173 29.4369 106.246 29.4369C106.294 29.4369 106.051 29.8398 105.71 30.3322C105.345 30.8247 104.98 31.1828 104.882 31.1157C104.785 31.0485 104.712 31.1828 104.736 31.4067C104.736 31.6081 104.615 31.7648 104.444 31.72C104.249 31.6977 104.176 31.7648 104.274 31.8991C104.469 32.1901 103.543 33.2869 103.3 33.0631C103.178 32.9735 103.178 33.0183 103.251 33.175C103.47 33.5108 101.377 35.9954 99.283 37.898C98.1874 38.8829 96.6537 39.7783 96.3615 39.6216C96.2155 39.5321 96.1181 39.5992 96.1181 39.7335C96.1181 40.3155 92.0038 39.353 89.6666 38.2114C88.1085 37.4504 81.6571 33.466 81.5597 33.2198C81.511 33.1079 81.3649 33.0183 81.2432 33.0183C80.9267 33.0183 78.3461 31.429 78.3461 31.2276C78.3461 31.1381 78.2 31.0709 78.054 31.0709C77.8836 31.0709 76.5446 30.4218 75.0595 29.6159C71.1156 27.5118 66.3196 25.6763 62.5704 24.8705C61.3288 24.6019 61.0123 24.6019 60.6472 24.8481C59.8925 25.3854 60.5498 25.8554 63.2521 26.7284C67.5125 28.1162 73.4771 30.9142 73.0389 31.3395C72.9415 31.4514 72.9902 31.4514 73.1606 31.3619C73.7449 31.0709 83.8725 37.9652 83.5316 38.4576C83.4586 38.5919 83.5073 38.6143 83.6777 38.5248C83.8481 38.4129 84.4081 38.6815 85.041 39.1515C85.6253 39.5992 86.1609 39.9574 86.234 39.9574C86.307 39.9574 86.8426 40.2707 87.4512 40.6289C91.3708 43.0688 95.826 43.9193 98.6743 42.7778C99.9403 42.2405 101.62 41.2333 102.01 40.7408C102.107 40.6289 102.204 40.5841 102.204 40.696C102.204 40.7856 103.203 39.8678 104.42 38.6815C105.613 37.4727 106.708 36.5102 106.806 36.5326C106.903 36.555 107 36.4655 107 36.3088C107 36.0402 112.259 29.504 112.795 29.1011C112.941 28.9668 113.111 28.7653 113.135 28.6534C113.184 28.2729 114.645 26.5269 114.888 26.5269C115.034 26.5269 115.083 26.4374 115.01 26.3479C114.84 26.1016 119.222 20.8862 119.489 21.0429C119.611 21.11 119.782 21.0429 119.879 20.9085C120.001 20.7295 119.952 20.7071 119.733 20.819C119.538 20.9309 119.465 20.8862 119.538 20.6847C119.611 20.5056 119.806 20.3937 119.952 20.4385C120.122 20.4609 120.195 20.4161 120.122 20.3042C119.757 19.7446 124.066 15.7826 125.673 15.223C126.598 14.9096 126.866 14.8872 128.4 15.2006C129.349 15.3797 131.029 15.8498 132.173 16.2527L134.218 17.0137L133.123 17.148C132.514 17.2376 131.54 17.439 130.932 17.5957C129.861 17.8867 129.934 17.8867 133.464 18.0882L137.091 18.2672L139.404 19.2969C142.885 20.819 145.076 21.6472 145.977 21.7591C146.683 21.8711 146.756 21.8263 146.756 21.3115C146.756 20.7742 146.488 20.5728 144.541 19.476C143.713 19.0059 143.323 18.603 143.445 18.3568C143.518 18.1553 143.372 18.1105 143.031 18.1777C142.496 18.2672 142.496 18.2672 142.983 17.9986C143.81 17.5062 150.554 17.439 152.672 17.9091C155.423 18.4911 157.638 19.2745 158.977 20.0803C159.318 20.3042 159.732 20.4833 159.878 20.4833C160.049 20.4833 160.292 20.5952 160.462 20.7071C160.633 20.8414 160.974 21.0876 161.241 21.2891C161.509 21.4681 161.168 21.3562 160.462 21.0429C159.756 20.7295 159.026 20.4833 158.831 20.4833C158.637 20.4833 158.442 20.3489 158.393 20.2146C158.198 19.7222 153.548 19.8565 151.138 20.4161C149.994 20.6847 148.631 20.9757 148.095 21.0876C147.559 21.1772 147.121 21.3562 147.121 21.4905C147.121 21.6025 148.192 21.8711 149.507 22.0949C150.822 22.2964 152.209 22.6321 152.55 22.7888C152.915 22.9679 154.108 23.5722 155.228 24.1542C157.127 25.1167 159.05 25.8107 161.972 26.5493C163.968 27.0642 168.423 26.9299 170.614 26.3255C174.096 25.3406 177.115 23.5051 180.109 20.5504L181.862 18.8044L181.01 20.3713C180.109 22.0278 178.283 24.4676 177.188 25.4301C174.948 27.4447 171.71 29.034 168.058 29.9069C165.94 30.4218 165.599 30.4442 158.637 30.377C150.676 30.3098 151.601 30.1755 148.363 31.7648C147.706 32.0782 146.902 32.3468 146.61 32.3468C146.294 32.3468 145.977 32.4363 145.904 32.5706C145.831 32.6826 145.49 32.7945 145.149 32.7945C143.835 32.7945 144.711 33.175 146.829 33.5331C150.724 34.1599 154.376 34.1823 156.981 33.5779C157.492 33.466 157.419 33.5779 156.494 34.3614C155.447 35.2791 152.745 36.5998 151.99 36.5998C150.724 36.5998 152.696 37.5623 155.642 38.3905C159.367 39.4202 160.487 39.5545 165.064 39.5097C168.326 39.4873 169.762 39.3306 172.489 38.7039C174.364 38.2786 178.356 36.8236 179.33 36.1969C179.695 35.973 180.158 35.7268 180.352 35.6596C182.495 34.9657 191.454 27.1985 190.139 27.1985C190.017 27.1985 189.604 27.4671 189.214 27.8252C187.778 29.0787 185.051 30.959 183.688 31.6529C181.667 32.6826 180.304 33.0183 177.674 33.175C175.459 33.2869 175.313 33.2645 174.68 32.7721L174.023 32.2349L174.607 31.1157C175.337 29.7726 175.581 29.5264 177.918 27.6461C178.916 26.8403 179.793 26.124 179.866 26.0569C180.206 25.654 184.102 23.4827 185.83 22.7217C188.654 21.4682 191.21 20.7295 194.181 20.3266C199.342 19.6103 204.795 20.7519 211.393 23.8856C212.196 24.2662 212.902 24.6467 212.975 24.7138C213.048 24.781 213.267 24.9377 213.486 25.072C214.192 25.4749 215.239 26.1464 217.041 27.3552C218.014 28.0043 218.842 28.5415 218.915 28.5415C219.232 28.5415 218.647 27.6461 217.381 26.1912C210.419 18.1553 200.851 14.3948 189.725 15.3349C186.293 15.6035 182.592 16.2527 179.939 17.0361C176.092 18.1777 174.364 18.4911 171.564 18.6254C168.35 18.7597 166.695 18.5135 165.648 17.6852C164.236 16.566 165.526 14.9992 168.521 14.171C170.274 13.7009 173.341 13.3204 175.556 13.3204C176.92 13.3204 177.918 13.2308 177.918 13.0965C177.918 12.7608 174.534 11.1267 172.684 10.5895C171.296 10.1642 170.395 10.0747 167.815 10.0747C165.891 10.0747 164.114 10.209 163.311 10.388C161.388 10.8357 156.665 12.4026 153.694 13.5666C153.159 13.768 152.063 14.1038 151.26 14.3276C150.457 14.5291 149.361 14.8201 148.825 14.9544C148.241 15.1111 146.099 15.223 143.591 15.223C141.254 15.223 139.258 15.3125 139.16 15.4245C139.087 15.5364 138.722 15.4245 138.381 15.1782C138.041 14.932 137.846 14.641 137.943 14.5515C138.041 14.4843 137.992 14.4396 137.87 14.4843C137.724 14.5291 136.702 13.9919 135.557 13.3204C131.297 10.7686 126.793 9.80606 123.823 10.8581C123.141 11.1043 122.508 11.261 122.46 11.2163C122.411 11.1491 122.192 11.261 121.973 11.4401C121.754 11.6416 120.877 12.2683 120.025 12.8727C119.197 13.4547 117.883 14.5739 117.128 15.3125C116.057 16.387 115.692 16.6332 115.448 16.4317C115.253 16.2974 115.107 16.2527 115.107 16.3646C115.107 16.4541 114.986 16.4317 114.815 16.2751C114.645 16.1184 114.304 16.0064 114.036 16.0064C112.941 16.0064 109.362 14.6858 107.755 13.6785C107.317 13.4099 106.757 13.1189 106.513 13.0294C106.27 12.9398 106.148 12.7831 106.221 12.6488C106.294 12.5145 106.197 12.4921 106.002 12.5593C105.783 12.6264 105.613 12.6041 105.613 12.4921C105.613 12.3802 105.272 12.1116 104.882 11.8878C104.444 11.6639 104.201 11.3953 104.298 11.2386C104.395 11.082 104.371 11.0372 104.274 11.1491C104.006 11.3729 102.667 10.1866 102.862 9.8956C102.935 9.7613 102.886 9.73891 102.74 9.82845C102.594 9.8956 102.229 9.64938 101.912 9.29123C101.596 8.9107 101.06 8.30633 100.695 7.9258C100.33 7.56766 99.8673 6.98568 99.6725 6.64991C99.4777 6.29177 99.1369 5.88885 98.9421 5.73217C98.723 5.55309 98.5526 5.28448 98.5526 5.10542C98.5526 4.94873 98.3335 4.59058 98.0657 4.32198C97.8223 4.05337 97.6518 3.76237 97.7249 3.65045C97.7979 3.56091 97.7492 3.47138 97.6275 3.47138C97.4571 3.47138 96.5807 2.10595 96.4833 1.68066C96.4346 1.45681 95.0226 0.113773 94.8521 0.113773C94.7548 0.113773 94.56 0.315228 94.4139 0.53907ZM46.8191 24.5124C46.8921 24.6243 47.1843 24.7362 47.4521 24.7362C47.9633 24.7362 50.13 25.945 51.0065 26.7284C52.1263 27.7133 53.7575 30.3322 54.147 31.7872C54.5122 33.1302 54.3904 35.9954 53.9522 36.8012C53.7088 37.2265 53.514 37.6742 53.514 37.8085C53.514 38.0323 52.9784 38.6591 51.6394 39.9798C50.6413 40.987 49.4971 41.8824 48.8884 42.151C48.5476 42.3077 48.1094 42.5092 47.9146 42.6435C47.1356 43.0911 45.3584 43.7627 44.9202 43.7627C44.6524 43.7627 44.0194 43.8746 43.4838 44.0313C42.3152 44.3446 40.2702 44.0313 38.2983 43.2031C36.935 42.6211 34.7682 40.6513 34.7682 39.9798C34.7682 39.7783 34.6465 39.4873 34.5004 39.353C34.3057 39.1739 34.2083 38.0323 34.2083 36.1073C34.2083 31.4514 34.963 29.3249 37.2514 27.288C38.6148 26.0793 40.2702 25.1615 42.0961 24.6467C43.3621 24.2885 46.6 24.199 46.8191 24.5124Z" fill="white"/>
<path d="M88.2058 9.33627C87.1833 9.67203 87.0615 9.7168 86.4772 10.0302C84.9678 10.836 83.921 11.6642 83.288 12.4924C82.4603 13.6564 81.5108 15.6933 81.5108 16.3649C81.5108 16.6559 81.4134 16.9468 81.2674 17.014C80.9022 17.2155 80.9509 20.6402 81.3404 20.7745C82.0464 21.0207 90.6646 20.7521 91.4924 20.4611C93.513 19.7225 95.2172 18.357 95.9719 16.8573C96.4831 15.8053 96.8726 13.1192 96.6048 12.6267C96.4588 12.4029 96.3614 12.0671 96.3614 11.8657C96.3614 11.3061 95.2659 9.96303 94.4381 9.49296C93.8051 9.1572 93.2209 9.06766 91.2976 9.09005C90.0073 9.11243 88.6196 9.22435 88.2058 9.33627Z" fill="white"/>
<path d="M115.643 26.6826C115.521 27.0408 115.205 27.9809 114.986 28.8091C114.742 29.7493 114.475 30.2641 114.304 30.1746C114.158 30.1074 114.134 30.1522 114.231 30.2865C114.304 30.4208 113.89 31.6295 113.257 32.9502C110.482 38.9043 108.51 43.4035 108.364 44.0079C108.169 44.9256 108.826 45.7762 109.752 45.7762C110.482 45.7762 111.212 45.1047 111.212 44.4332C111.212 44.2541 111.651 43.1797 112.21 42.0605C112.965 40.516 113.33 40.0459 113.622 40.1131C113.842 40.1578 115.375 39.934 117.031 39.6206C118.686 39.3072 120.22 39.061 120.463 39.061C120.707 39.061 121.096 39.4863 121.462 40.225C122.508 42.3291 124.213 45.1047 124.943 45.9329C125.479 46.5149 126.355 46.6044 126.793 46.112C127.11 45.7538 126.745 44.7018 125.211 41.6799C124.724 40.7174 124.407 39.8221 124.505 39.6878C124.602 39.5535 124.578 39.5087 124.432 39.5758C124.286 39.6654 124.067 39.4639 123.896 39.1506C123.555 38.4119 123.531 38.4566 124.334 38.2104C124.797 38.0537 125.065 37.7851 125.138 37.4046C125.235 36.9345 125.138 36.8002 124.529 36.5988C124.14 36.4869 123.507 36.3749 123.166 36.3749C122.581 36.3749 122.435 36.1511 121.194 33.174C119.514 29.1225 118.175 26.6155 117.566 26.3245C116.666 25.8768 115.911 26.0335 115.643 26.6826ZM119.587 36.3302C119.733 36.7107 119.611 36.7778 118.711 36.9121C116.617 37.1584 114.621 37.3151 114.621 37.2255C114.621 37.1808 115.059 36.1287 115.619 34.8976C116.154 33.6888 116.714 32.3906 116.86 32.0548C117.104 31.4281 117.153 31.4728 118.272 33.6665C118.93 34.8976 119.514 36.0839 119.587 36.3302Z" fill="white"/>
<path d="M136.653 27.0871C135.582 27.2438 133.951 27.5348 133.001 27.7362C132.076 27.9377 130.615 28.0944 129.788 28.0944C127.767 28.0944 127.67 28.2735 127.889 31.6087C128.059 34.0485 128.059 34.1828 127.548 34.4962C126.939 34.8991 126.866 35.8393 127.426 36.5556C127.718 36.9585 127.767 37.4285 127.645 38.9059C127.572 39.9132 127.451 41.2562 127.402 41.9053C127.353 42.5545 127.183 43.2932 127.037 43.5618C126.647 44.1885 126.915 45.0167 127.621 45.4644C128.181 45.7778 128.351 45.7554 130.372 45.1286C133.147 44.2557 135.046 43.9871 138.43 43.9871C139.94 43.9871 141.4 43.8751 141.668 43.7632C142.277 43.4498 142.277 42.7336 141.668 42.4202C140.816 42.0173 136.483 41.7263 133.293 41.883L130.202 42.0396L130.348 39.3759C130.445 37.921 130.542 36.6899 130.542 36.6675C130.664 36.5108 140.792 34.8544 140.962 34.9439C141.06 35.0111 141.157 34.9663 141.157 34.8544C141.157 34.7201 141.449 34.5634 141.79 34.4962C142.666 34.2948 143.591 33.6904 143.591 33.3546C143.591 32.4145 142.447 32.4593 131.687 33.8471L130.615 33.9814L130.737 32.3697C130.81 31.4968 130.908 30.7133 130.981 30.6686C131.054 30.6014 132.198 30.288 133.513 29.9523C135.655 29.4374 136.483 29.3703 141.035 29.2807C143.859 29.236 146.294 29.1464 146.464 29.1017C146.61 29.0569 146.756 28.7883 146.756 28.5421C146.756 27.8034 145.076 27.2438 141.985 26.9752C138.917 26.7066 139.161 26.7066 136.653 27.0871Z" fill="white"/>
<path d="M150.286 39.0405C150.237 39.1525 150.797 39.3539 151.576 39.4882C152.331 39.6449 153.621 40.0478 154.425 40.4284C155.228 40.7865 155.666 41.0103 155.399 40.9432C154.352 40.6298 152.355 40.585 151.99 40.8536C151.211 41.458 151.698 42.1295 153.743 43.2487C156.835 44.9052 161.582 45.129 163.846 43.7188C164.187 43.495 164.552 43.3159 164.625 43.3159C164.796 43.3159 165.405 42.8682 166.768 41.7714C167.961 40.8089 167.644 40.4731 166.208 41.1223C164.65 41.8385 161.655 41.7714 159.294 40.9656C155.131 39.5554 153.11 38.9958 151.82 38.9286C151.041 38.8839 150.359 38.951 150.286 39.0405Z" fill="white"/>
<path d="M0.0520607 51.7087C-0.0209749 51.8878 -0.0209749 52.134 0.0764059 52.2683C0.173787 52.425 31.8712 52.4922 103.811 52.4922H207.4L207.327 51.9774L207.254 51.4849L103.714 51.4178C13.3445 51.373 0.173787 51.4178 0.0520607 51.7087Z" fill="white"/>
<path d="M35.0602 56.0057C34.1594 58.1098 33.989 62.1166 34.6463 65.0265C35.0846 66.9515 35.2306 67.153 36.0827 66.9515L36.6913 66.8172L36.2288 65.8547C35.4254 64.1759 35.1333 61.5122 35.4984 59.2738C35.6688 58.1994 35.961 56.9459 36.1314 56.4758C36.3018 56.0281 36.3749 55.6028 36.3018 55.5357C35.9366 55.1999 35.2793 55.4461 35.0602 56.0057Z" fill="white"/>
<path d="M90.7622 55.6035C90.7622 55.7154 90.9813 56.5884 91.2491 57.5509C91.8821 59.8564 91.8821 62.6097 91.2491 64.8033C90.6405 66.9298 90.6405 67.0865 91.2978 66.997C91.6873 66.9522 91.9308 66.6164 92.296 65.6987C92.9776 63.9527 93.0263 58.8268 92.369 56.7898C91.9795 55.6035 91.8334 55.402 91.3465 55.402C91.03 55.402 90.7622 55.4916 90.7622 55.6035Z" fill="white"/>
<path d="M1.41518 61.1095C1.53691 66.0787 1.56125 66.2578 2.02381 66.2578C2.48637 66.2578 2.51072 66.1011 2.51072 61.1319V56.0059L1.90209 55.9835L1.29346 55.9612L1.41518 61.1095Z" fill="white"/>
<path d="M11.4698 56.0066C11.2264 56.0961 11.1533 57.2825 11.1533 60.9982C11.1533 65.0498 11.2264 65.9227 11.5185 66.1466C11.8106 66.3704 11.9567 66.3704 12.2489 66.1466C12.541 65.9227 12.614 65.0498 12.614 60.9982C12.614 56.5438 12.5653 56.1185 12.2002 56.029C11.9567 55.9618 11.6159 55.9618 11.4698 56.0066Z" fill="white"/>
<path d="M20.843 56.0955C20.7212 56.185 20.6482 56.4312 20.6969 56.6551C20.7456 56.9908 21.0377 57.1027 21.9142 57.1475L23.0827 57.2147L23.1314 61.7362C23.2044 66.0787 23.2288 66.2578 23.6913 66.2578C24.1539 66.2578 24.1783 66.0787 24.2513 61.7139L24.3 57.1923H25.4199C26.4667 57.1923 26.5154 57.1699 26.4424 56.6103L26.3693 56.0283L23.74 56.0059C22.2793 55.9835 20.989 56.0283 20.843 56.0955Z" fill="white"/>
<path d="M44.5063 61.0205V66.1465H46.8922C48.2555 66.1465 49.5458 66.0346 49.911 65.8779C51.4691 65.2064 52.029 63.0575 51.1039 61.4011C50.8604 60.931 50.5926 60.6176 50.544 60.6848C50.4709 60.7295 50.2762 60.64 50.1301 60.4609C49.911 60.2147 49.8866 60.0133 50.0814 59.6775C50.4466 59.0507 50.4222 57.9539 49.984 57.1929C49.4484 56.2304 48.3529 55.8274 46.2835 55.8722L44.5063 55.917V61.0205ZM48.6694 57.6853C49.2537 58.3345 49.2537 58.7821 48.6694 59.3865C48.3285 59.767 47.939 59.879 46.9652 59.879H45.7236V58.5359V57.1929H46.9652C47.939 57.1929 48.3042 57.3048 48.6694 57.6853ZM49.205 61.4906C50.1788 61.9159 50.69 63.3037 50.1301 64.0872C49.7406 64.6691 48.572 65.0273 47.16 65.0273H45.7236V63.1246V61.222H47.1356C47.9147 61.222 48.8398 61.3563 49.205 61.4906Z" fill="white"/>
<path d="M59.9166 56.0076C59.6731 56.0747 59.6001 57.3282 59.6001 61.1335V66.1699L60.2818 66.1028L60.9391 66.0356L61.0121 63.6181L61.0852 61.223H63.471C65.4429 61.223 65.9055 61.2902 66.0272 61.5812C66.1003 61.7826 66.1733 62.8795 66.1733 64.0434C66.1733 66.1475 66.1733 66.1475 66.7819 66.1475H67.3906V61.1335C67.3906 57.9774 67.2932 56.0523 67.1471 55.9628C67.001 55.8956 66.7089 55.8733 66.4654 55.9404C66.1003 56.0523 66.0516 56.3209 66.1246 57.7983C66.2463 59.9919 66.1003 60.1038 63.2032 60.1038H61.0608V58.3355C61.0608 55.9628 60.8904 55.627 59.9166 56.0076Z" fill="white"/>
<path d="M76.0332 55.9847C75.7897 56.0742 75.7897 63.7295 76.0332 64.7368C76.2523 65.5874 77.4939 66.2142 79.052 66.2366C81.3404 66.2813 82.3873 65.4531 82.4846 63.5729C82.509 63.0804 82.5333 61.133 82.509 59.2527C82.4846 55.828 82.4846 55.828 81.9491 55.8951C81.3891 55.9623 81.3891 56.0071 81.3161 60.1705L81.2674 64.3787L80.464 64.804C79.6119 65.2964 78.6625 65.2517 77.6886 64.6697C77.1531 64.3563 77.1287 64.222 77.08 60.1705C77.007 56.6338 76.9583 55.9623 76.6418 55.9175C76.447 55.8951 76.1792 55.9175 76.0332 55.9847Z" fill="white"/>
<path d="M110.263 56.0516C109.995 56.2083 110.214 57.0589 111.407 60.4613C112.235 62.7892 112.965 64.9605 113.062 65.2962C113.208 65.9454 113.768 66.505 113.963 66.214C114.207 65.8334 117.298 56.8127 117.298 56.4769C117.298 56.2755 117.201 56.0516 117.104 55.9845C116.811 55.8278 115.813 56.0964 115.959 56.2978C116.032 56.3874 115.57 57.9095 114.961 59.6778C114.353 61.4462 113.841 62.9907 113.793 63.1026C113.768 63.2145 113.233 61.8043 112.6 59.9688C111.139 55.7606 111.042 55.6039 110.263 56.0516Z" fill="white"/>
<path d="M206.183 58.4923C205.891 59.0071 206.28 59.6562 206.889 59.6562C207.498 59.6562 207.692 59.3205 207.522 58.6266C207.327 57.9774 206.524 57.8879 206.183 58.4923Z" fill="white"/>
<path d="M126.915 60.1943C125.552 60.7539 124.992 61.5374 124.894 63.0819C124.797 64.3801 124.846 64.5145 125.576 65.186C126.55 66.0813 127.767 66.4619 128.936 66.238C130.25 65.9918 130.299 65.9918 130.591 66.1933C130.737 66.3052 131.054 66.3276 131.273 66.238C131.614 66.1261 131.662 65.656 131.662 63.1266C131.662 60.7092 131.589 60.1272 131.297 60.0153C131.102 59.9481 130.786 60.0376 130.591 60.2167C130.299 60.5077 130.129 60.5077 129.374 60.2167C128.327 59.8138 127.865 59.8138 126.915 60.1943ZM129.106 61.3135C130.543 61.8731 130.908 63.3952 129.861 64.5145C129.398 65.0069 129.082 65.1412 128.254 65.1412C125.868 65.1412 125.187 62.2089 127.353 61.3359C128.327 60.933 128.132 60.9554 129.106 61.3135Z" fill="white"/>
<path d="M141.546 60.0368C141.449 60.1263 141.01 60.1711 140.548 60.1487L139.696 60.0815V62.9691C139.696 65.2299 139.769 65.9238 140.061 66.1476C140.694 66.6177 140.913 66.1476 140.913 64.3569C140.913 61.8723 141.449 60.7531 142.374 61.2679C142.934 61.6037 143.591 61.3351 143.591 60.7978C143.591 60.2606 141.984 59.6562 141.546 60.0368Z" fill="white"/>
<path d="M152.964 60.2151C152.574 60.4165 152.063 60.7523 151.844 60.9985C151.625 61.2223 151.381 61.379 151.333 61.3343C151.26 61.2671 151.211 61.3566 151.187 61.5133C151.162 61.6476 151.089 62.2072 150.992 62.7444C150.895 63.4607 150.968 63.9084 151.333 64.5576C151.625 65.05 151.771 65.4977 151.674 65.5872C151.576 65.6768 151.625 65.7215 151.747 65.6768C151.893 65.6544 152.404 65.7887 152.891 65.9901C154.011 66.4602 154.936 66.4602 155.837 66.0573C156.202 65.8782 156.494 65.8111 156.494 65.923C156.494 66.1916 157.273 66.4154 157.492 66.214C157.589 66.1244 157.711 64.6695 157.76 63.0131L157.833 59.9688L157.176 60.0584C156.786 60.1031 156.494 60.2374 156.494 60.327C156.494 60.4165 156.08 60.3717 155.593 60.1927C154.376 59.8121 153.84 59.8121 152.964 60.2151ZM156.007 61.7819C157.127 62.8788 156.397 64.8262 154.765 65.1395C153.207 65.4529 151.722 63.7517 152.331 62.3863C152.647 61.7148 153.451 61.1328 153.816 61.3343C153.962 61.4238 154.059 61.379 154.059 61.2671C154.059 60.8866 155.496 61.2671 156.007 61.7819Z" fill="white"/>
<path d="M166.427 60.0363C166.037 60.1259 165.989 60.4616 165.989 63.1253C165.989 64.7818 166.086 66.1696 166.208 66.2367C166.33 66.3263 166.597 66.3039 166.817 66.2367C167.133 66.1248 167.206 65.7219 167.206 64.0207C167.206 62.4091 167.303 61.8495 167.596 61.5808C168.082 61.1108 168.886 61.0884 168.715 61.5361C168.667 61.648 168.813 61.6032 169.032 61.4465C169.714 60.9317 169.981 61.5361 170.079 63.864C170.176 66.1696 170.347 66.6173 170.98 66.1472C171.515 65.7443 171.491 62.1404 170.955 61.1555C170.444 60.2378 170.566 60.3273 169.421 60.0811C168.837 59.9692 168.204 59.9692 167.863 60.0811C167.523 60.193 167.182 60.2154 167.06 60.1259C166.938 60.0363 166.646 59.9916 166.427 60.0363Z" fill="white"/>
<path d="M181.156 60.3264C178.015 61.6247 178.77 65.8776 182.227 66.3029C182.836 66.3701 183.444 66.3029 183.907 66.0791C184.516 65.7881 184.662 65.7881 184.929 66.0791C185.66 66.773 185.83 66.2582 185.903 63.1692L185.976 60.1026H185.343C185.002 60.1026 184.735 60.1921 184.735 60.304C184.735 60.4383 184.345 60.3712 183.883 60.1921C182.787 59.7892 182.397 59.7892 181.156 60.3264ZM184.15 61.6918C184.467 61.9604 184.662 62.4305 184.686 63.0125C184.735 63.7735 184.637 64.0422 184.004 64.6241C183.371 65.1837 183.128 65.2733 182.471 65.1614C180.815 64.848 180.012 63.393 180.839 62.1619C181.643 60.9532 183.03 60.7741 184.15 61.6918Z" fill="white"/>
<path d="M194.959 60.193C194.789 60.4169 194.521 60.5288 194.375 60.484C194.205 60.4169 194.083 60.7526 194.034 61.2898C193.961 62.3643 194.4 62.9015 195.885 63.4835C197.029 63.9312 197.37 64.4012 196.907 64.9161C196.493 65.3861 195.86 65.3414 195.13 64.8041C194.375 64.2445 193.742 64.2221 193.742 64.737C193.767 65.319 194.278 65.8786 195.057 66.1472C196.225 66.5501 196.907 66.4158 197.783 65.61C198.514 64.9384 198.563 64.7817 198.368 64.1774C198.051 63.1253 197.954 63.0358 196.518 62.4538C195.13 61.8942 194.911 61.6032 195.641 61.2451C195.958 61.0884 196.298 61.1108 196.785 61.357C197.516 61.6928 198.124 61.4689 198.124 60.8645C198.124 60.1483 195.519 59.611 194.959 60.193Z" fill="white"/>
<path d="M206.158 63.1022C206.158 65.6988 206.207 66.124 206.572 66.236C206.791 66.3255 207.059 66.3031 207.156 66.2136C207.302 66.0793 207.473 62.0054 207.4 60.3714C207.375 60.237 207.108 60.1027 206.767 60.1027H206.158V63.1022Z" fill="white"/>
<path d="M101.304 65.4979C101.036 66.1471 100.817 66.3485 100.549 66.259C100.281 66.1694 100.257 66.2142 100.452 66.438C100.671 66.6619 100.671 66.7962 100.452 66.9976C100.232 67.1991 100.305 67.311 100.744 67.4453C101.255 67.6244 101.377 67.5349 101.912 66.55C102.229 65.968 102.594 65.4755 102.716 65.4755C103.105 65.4755 102.667 64.8488 102.18 64.7369C101.79 64.6473 101.62 64.804 101.304 65.4979Z" fill="white"/>
</svg>
