<svg width="27" height="27" viewBox="0 0 27 27" fill="none" xmlns="http://www.w3.org/2000/svg">
<g id="Essential Icons / send">
<path id="Vector" fill-rule="evenodd" clip-rule="evenodd" d="M25.3273 1.50992C25.6247 1.80733 25.7254 2.24883 25.5865 2.64582L17.9223 24.5435C17.774 24.9672 17.3821 25.2574 16.9335 25.2757C16.485 25.294 16.0707 25.0367 15.8884 24.6264L11.6799 15.1573L2.21076 10.9488C1.80053 10.7665 1.54316 10.3522 1.56146 9.90366C1.57976 9.45511 1.87002 9.06318 2.29374 8.91488L24.1914 1.25071C24.5884 1.11176 25.0299 1.21251 25.3273 1.50992ZM13.8153 14.5703L16.7678 21.2135L21.9347 6.4509L13.8153 14.5703ZM20.3863 4.9025L5.62374 10.0694L12.2669 13.0219L20.3863 4.9025Z" fill="white"/>
</g>
</svg>
