<svg width="54" height="54" viewBox="0 0 54 54" fill="none" xmlns="http://www.w3.org/2000/svg">
<g clip-path="url(#clip0_1768_48)">
<rect width="54" height="54" rx="8.64" fill="#E25420"/>
<path d="M27 0C34.3359 0 35.2512 0.0269998 38.1294 0.162C41.0049 0.297 42.9624 0.7479 44.685 1.4175C46.467 2.1033 47.9682 3.0321 49.4694 4.5306C50.8423 5.88032 51.9047 7.51299 52.5825 9.315C53.2494 11.0349 53.703 12.9951 53.838 15.8706C53.9649 18.7488 54 19.6641 54 27C54 34.3359 53.973 35.2512 53.838 38.1294C53.703 41.0049 53.2494 42.9624 52.5825 44.685C51.9066 46.488 50.844 48.1211 49.4694 49.4694C48.1193 50.8419 46.4867 51.9041 44.685 52.5825C42.9651 53.2494 41.0049 53.703 38.1294 53.838C35.2512 53.9649 34.3359 54 27 54C19.6641 54 18.7488 53.973 15.8706 53.838C12.9951 53.703 11.0376 53.2494 9.315 52.5825C7.51228 51.9061 5.87932 50.8435 4.5306 49.4694C3.1574 48.1199 2.09501 46.4872 1.4175 44.685C0.7479 42.9651 0.297 41.0049 0.162 38.1294C0.0350998 35.2512 0 34.3359 0 27C0 19.6641 0.0269998 18.7488 0.162 15.8706C0.297 12.9924 0.7479 11.0376 1.4175 9.315C2.09314 7.51188 3.15577 5.87877 4.5306 4.5306C5.87971 3.15692 7.51256 2.09447 9.315 1.4175C11.0376 0.7479 12.9924 0.297 15.8706 0.162C18.7488 0.0350998 19.6641 0 27 0ZM27 13.5C23.4196 13.5 19.9858 14.9223 17.4541 17.4541C14.9223 19.9858 13.5 23.4196 13.5 27C13.5 30.5804 14.9223 34.0142 17.4541 36.5459C19.9858 39.0777 23.4196 40.5 27 40.5C30.5804 40.5 34.0142 39.0777 36.5459 36.5459C39.0777 34.0142 40.5 30.5804 40.5 27C40.5 23.4196 39.0777 19.9858 36.5459 17.4541C34.0142 14.9223 30.5804 13.5 27 13.5ZM44.55 12.825C44.55 11.9299 44.1944 11.0714 43.5615 10.4385C42.9285 9.80558 42.0701 9.45 41.175 9.45C40.2799 9.45 39.4214 9.80558 38.7885 10.4385C38.1556 11.0714 37.8 11.9299 37.8 12.825C37.8 13.7201 38.1556 14.5785 38.7885 15.2115C39.4214 15.8444 40.2799 16.2 41.175 16.2C42.0701 16.2 42.9285 15.8444 43.5615 15.2115C44.1944 14.5785 44.55 13.7201 44.55 12.825ZM27 18.9C29.1483 18.9 31.2085 19.7534 32.7276 21.2724C34.2466 22.7915 35.1 24.8517 35.1 27C35.1 29.1483 34.2466 31.2085 32.7276 32.7276C31.2085 34.2466 29.1483 35.1 27 35.1C24.8517 35.1 22.7915 34.2466 21.2724 32.7276C19.7534 31.2085 18.9 29.1483 18.9 27C18.9 24.8517 19.7534 22.7915 21.2724 21.2724C22.7915 19.7534 24.8517 18.9 27 18.9Z" fill="white"/>
<rect x="-2.16016" width="56.16" height="6.48" fill="white"/>
<rect y="48.6" width="56.16" height="6.48" fill="white"/>
<rect x="49.6797" y="1.07996" width="4.32" height="55.08" fill="white"/>
<rect width="4.32" height="55.08" fill="white"/>
</g>
<defs>
<clipPath id="clip0_1768_48">
<rect width="54" height="54" rx="8.64" fill="white"/>
</clipPath>
</defs>
</svg>
