<svg width="61" height="62" viewBox="0 0 61 62" fill="none" xmlns="http://www.w3.org/2000/svg">
<rect x="0.5" y="0.9375" width="60.125" height="60.125" rx="4.625" fill="#E3E3E3"/>
<path d="M9.26521 49.9867H16.8775V29.4029L6 20.3097V46.3515C6 48.3669 7.46523 49.9867 9.26521 49.9867Z" fill="#E25420"/>
<path d="M43 49.9866H50.6123C52.4123 49.9866 53.8775 48.3554 53.8775 46.3514V20.3096L43 29.3913V49.9866Z" fill="#E25420"/>
<path d="M43 13.6479V29.3921L53.8775 20.3103V15.4603C53.8775 10.9725 49.2723 8.40328 46.0455 11.1005L43 13.6479Z" fill="#E25420"/>
<path d="M16.8789 29.4038V13.6482L29.9388 24.5538L42.9987 13.6482V29.4038L29.9388 40.298L16.8789 29.4038Z" fill="#E25420"/>
<path d="M6 15.4713V20.3213L16.8775 29.4031V13.6485L13.832 11.1115C10.6051 8.41427 6 10.9835 6 15.4713Z" fill="#E25420"/>
</svg>
